<?xml version="1.0" encoding="UTF-8" standalone="no"?>
<svg
   aria-hidden="true"
   focusable="false"
   data-prefix="fas"
   data-icon="code-branch"
   class="svg-inline--fa fa-code-branch fa-w-12"
   role="img"
   viewBox="0 0 711 948"
   version="1.1"
   id="svg4"
   sodipodi:docname="condition.svg"
   inkscape:version="1.1 (ce6663b3b7, 2021-05-25)"
   width="711"
   height="948"
   xmlns:inkscape="http://www.inkscape.org/namespaces/inkscape"
   xmlns:sodipodi="http://sodipodi.sourceforge.net/DTD/sodipodi-0.dtd"
   xmlns="http://www.w3.org/2000/svg"
   xmlns:svg="http://www.w3.org/2000/svg">
  <defs
     id="defs8" />
  <sodipodi:namedview
     id="namedview6"
     pagecolor="#ffffff"
     bordercolor="#666666"
     borderopacity="1.0"
     inkscape:pageshadow="2"
     inkscape:pageopacity="0.0"
     inkscape:pagecheckerboard="0"
     showgrid="false"
     inkscape:zoom="1.2949219"
     inkscape:cx="25.484162"
     inkscape:cy="255.61387"
     inkscape:window-width="1600"
     inkscape:window-height="863"
     inkscape:window-x="0"
     inkscape:window-y="0"
     inkscape:window-maximized="1"
     inkscape:current-layer="svg4" />
  <path
     fill="currentColor"
     d="M 711,266.625 C 711,184.78594 644.71406,118.5 562.875,118.5 c -81.83906,0 -148.125,66.28594 -148.125,148.125 0,67.39688 44.99297,124.23984 106.46484,142.2 -1.11093,29.81016 -7.77656,52.76953 -20.36718,68.32266 -28.51407,35.55 -91.28204,41.475 -157.75313,47.58515 -52.21406,4.81406 -106.27969,9.99844 -150.53203,31.29141 v -266.625 C 252.73828,270.51328 296.25,214.41094 296.25,148.125 296.25,66.285937 229.96406,0 148.125,0 66.285937,0 0,66.285938 0,148.125 0,214.41094 43.511719,270.51328 103.6875,289.39922 V 658.41563 C 43.511719,677.48672 0,733.58906 0,799.875 0,881.71406 66.285937,948 148.125,948 c 81.83906,0 148.125,-66.28594 148.125,-148.125 0,-62.95313 -39.25312,-116.83359 -94.8,-138.12656 5.73984,-9.62813 14.44219,-18.14532 27.58828,-24.81094 29.99531,-15.18281 74.80313,-19.25625 122.38828,-23.7 78.13594,-7.22109 166.64063,-15.55312 218.85469,-80.35781 C 596.20312,500.6625 609.34922,459.1875 610.275,407.15859 668.78438,387.16172 711,331.8 711,266.625 Z M 148.125,118.5 c 16.29375,0 29.625,13.33125 29.625,29.625 0,16.29375 -13.33125,29.625 -29.625,29.625 -16.29375,0 -29.625,-13.33125 -29.625,-29.625 0,-16.29375 13.33125,-29.625 29.625,-29.625 z m 0,711 c -16.29375,0 -29.625,-13.33125 -29.625,-29.625 0,-16.29375 13.33125,-29.625 29.625,-29.625 16.29375,0 29.625,13.33125 29.625,29.625 0,16.29375 -13.33125,29.625 -29.625,29.625 z M 562.875,237 c 16.29375,0 29.625,13.33125 29.625,29.625 0,16.29375 -13.33125,29.625 -29.625,29.625 -16.29375,0 -29.625,-13.33125 -29.625,-29.625 0,-16.29375 13.33125,-29.625 29.625,-29.625 z"
     id="path2"
     style="fill:#ffffff;fill-opacity:1;stroke-width:1.85156" />
</svg>
