<?xml version="1.0" encoding="UTF-8" standalone="no"?>
<!-- Generator: Adobe Illustrator 19.0.0, SVG Export Plug-In . SVG Version: 6.00 Build 0)  -->

<svg
   version="1.1"
   id="Capa_1"
   x="0px"
   y="0px"
   viewBox="0 0 711 947.99756"
   xml:space="preserve"
   sodipodi:docname="hourglass.svg"
   inkscape:version="1.1 (ce6663b3b7, 2021-05-25)"
   width="711"
   height="947.99756"
   xmlns:inkscape="http://www.inkscape.org/namespaces/inkscape"
   xmlns:sodipodi="http://sodipodi.sourceforge.net/DTD/sodipodi-0.dtd"
   xmlns="http://www.w3.org/2000/svg"
   xmlns:svg="http://www.w3.org/2000/svg"><defs
   id="defs45" /><sodipodi:namedview
   id="namedview43"
   pagecolor="#ffffff"
   bordercolor="#666666"
   borderopacity="1.0"
   inkscape:pageshadow="2"
   inkscape:pageopacity="0.0"
   inkscape:pagecheckerboard="0"
   showgrid="false"
   inkscape:zoom="1.2949219"
   inkscape:cx="25.484162"
   inkscape:cy="255.61387"
   inkscape:window-width="1392"
   inkscape:window-height="851"
   inkscape:window-x="1672"
   inkscape:window-y="27"
   inkscape:window-maximized="1"
   inkscape:current-layer="Capa_1" />
<g
   id="g10"
   style="fill:#ffffff;fill-opacity:1"
   transform="matrix(1.8515577,0,0,1.8515577,-118.49969,0)">
	<g
   id="g8"
   style="fill:#ffffff;fill-opacity:1">
		<g
   id="g6"
   style="fill:#ffffff;fill-opacity:1">
			<path
   d="M 426.667,102.99 V 58.066 C 439.358,50.667 448,37.059 448,21.333 V 10.667 C 448,4.771 443.229,0 437.333,0 H 74.667 C 68.771,0 64,4.771 64,10.667 v 10.667 c 0,15.725 8.642,29.333 21.333,36.733 v 44.923 c 0,42.271 18.021,82.729 49.438,111 l 46.677,42.01 -46.677,42.01 c -31.417,28.271 -49.438,68.729 -49.438,111 v 44.923 C 72.642,461.333 64,474.941 64,490.667 v 10.667 C 64,507.229 68.771,512 74.667,512 h 362.667 c 5.896,0 10.667,-4.771 10.667,-10.667 v -10.667 c 0,-15.725 -8.642,-29.333 -21.333,-36.733 V 409.01 c 0,-42.271 -18.021,-82.729 -49.438,-111 L 330.552,256 377.229,213.99 c 31.417,-28.271 49.438,-68.73 49.438,-111 z m -77.979,79.291 -64.292,57.865 c -4.5,4.042 -7.063,9.802 -7.063,15.854 0,6.052 2.563,11.813 7.063,15.854 l 64.292,57.865 C 371.125,349.917 384,378.823 384,409.01 V 448 H 357.328 L 264.531,324.271 c -4.021,-5.375 -13.042,-5.375 -17.063,0 L 154.672,448 H 128 v -38.99 c 0,-30.188 12.875,-59.094 35.313,-79.292 l 64.292,-57.865 c 4.5,-4.042 7.063,-9.802 7.063,-15.854 0,-6.052 -2.563,-11.813 -7.063,-15.854 L 163.313,182.28 C 140.875,162.083 128,133.177 128,102.99 V 64 h 256 v 38.99 c 0,30.187 -12.875,59.093 -35.312,79.291 z"
   id="path2"
   style="fill:#ffffff;fill-opacity:1" />
			<path
   d="M 329.521,149.333 H 182.469 c -4.219,0 -8.042,2.49 -9.75,6.344 -1.708,3.865 -0.99,8.365 1.854,11.49 l 74.271,68.521 c 2.031,1.844 4.594,2.76 7.156,2.76 2.562,0 5.125,-0.917 7.156,-2.76 l 74.26,-68.521 c 2.844,-3.125 3.563,-7.625 1.854,-11.49 -1.707,-3.854 -5.53,-6.344 -9.749,-6.344 z"
   id="path4"
   style="fill:#ffffff;fill-opacity:1" />
		</g>
	</g>
</g>
<g
   id="g12"
   style="fill:#ffffff;fill-opacity:1"
   transform="matrix(1.8515577,0,0,1.8515577,-118.49969,0)">
</g>
<g
   id="g14"
   style="fill:#ffffff;fill-opacity:1"
   transform="matrix(1.8515577,0,0,1.8515577,-118.49969,0)">
</g>
<g
   id="g16"
   style="fill:#ffffff;fill-opacity:1"
   transform="matrix(1.8515577,0,0,1.8515577,-118.49969,0)">
</g>
<g
   id="g18"
   style="fill:#ffffff;fill-opacity:1"
   transform="matrix(1.8515577,0,0,1.8515577,-118.49969,0)">
</g>
<g
   id="g20"
   style="fill:#ffffff;fill-opacity:1"
   transform="matrix(1.8515577,0,0,1.8515577,-118.49969,0)">
</g>
<g
   id="g22"
   style="fill:#ffffff;fill-opacity:1"
   transform="matrix(1.8515577,0,0,1.8515577,-118.49969,0)">
</g>
<g
   id="g24"
   style="fill:#ffffff;fill-opacity:1"
   transform="matrix(1.8515577,0,0,1.8515577,-118.49969,0)">
</g>
<g
   id="g26"
   style="fill:#ffffff;fill-opacity:1"
   transform="matrix(1.8515577,0,0,1.8515577,-118.49969,0)">
</g>
<g
   id="g28"
   style="fill:#ffffff;fill-opacity:1"
   transform="matrix(1.8515577,0,0,1.8515577,-118.49969,0)">
</g>
<g
   id="g30"
   style="fill:#ffffff;fill-opacity:1"
   transform="matrix(1.8515577,0,0,1.8515577,-118.49969,0)">
</g>
<g
   id="g32"
   style="fill:#ffffff;fill-opacity:1"
   transform="matrix(1.8515577,0,0,1.8515577,-118.49969,0)">
</g>
<g
   id="g34"
   style="fill:#ffffff;fill-opacity:1"
   transform="matrix(1.8515577,0,0,1.8515577,-118.49969,0)">
</g>
<g
   id="g36"
   style="fill:#ffffff;fill-opacity:1"
   transform="matrix(1.8515577,0,0,1.8515577,-118.49969,0)">
</g>
<g
   id="g38"
   style="fill:#ffffff;fill-opacity:1"
   transform="matrix(1.8515577,0,0,1.8515577,-118.49969,0)">
</g>
<g
   id="g40"
   style="fill:#ffffff;fill-opacity:1"
   transform="matrix(1.8515577,0,0,1.8515577,-118.49969,0)">
</g>
</svg>
