<?xml version="1.0" encoding="UTF-8" standalone="no"?>
<svg
   id="_x31__x2C_5"
   enable-background="new 0 0 24 24"
   height="711"
   viewBox="0 0 33.328125 33.328125"
   width="711"
   version="1.1"
   sodipodi:docname="navigation.svg"
   inkscape:version="1.1 (ce6663b3b7, 2021-05-25)"
   xmlns:inkscape="http://www.inkscape.org/namespaces/inkscape"
   xmlns:sodipodi="http://sodipodi.sourceforge.net/DTD/sodipodi-0.dtd"
   xmlns="http://www.w3.org/2000/svg"
   xmlns:svg="http://www.w3.org/2000/svg">
  <defs
     id="defs889" />
  <sodipodi:namedview
     id="namedview887"
     pagecolor="#ffffff"
     bordercolor="#666666"
     borderopacity="1.0"
     inkscape:pageshadow="2"
     inkscape:pageopacity="0.0"
     inkscape:pagecheckerboard="0"
     showgrid="false"
     inkscape:zoom="0.32373048"
     inkscape:cx="-423.19154"
     inkscape:cy="469.52639"
     inkscape:window-width="1392"
     inkscape:window-height="851"
     inkscape:window-x="1672"
     inkscape:window-y="27"
     inkscape:window-maximized="1"
     inkscape:current-layer="_x31__x2C_5" />
  <path
     d="m 6.9433594,18.052734 c -0.2416289,0 -0.4832578,-0.08332 -0.6762832,-0.249961 C 6.0101719,17.583363 0,12.38001 0,7.0308457 0,3.1536738 3.114791,0 6.9433594,0 c 3.8285686,0 6.9433596,3.1536738 6.9433596,7.0308457 0,5.3505523 -6.0101721,10.5539063 -6.2670764,10.7719273 -0.1930254,0.166641 -0.4346543,0.249961 -0.6762832,0.249961 z m 0,-15.9697262 c -2.6801367,0 -4.8603516,2.2190977 -4.8603516,4.9478379 0,3.4466833 3.3828047,7.1183323 4.8603516,8.5597733 1.4775469,-1.440053 4.8603516,-5.11309 4.8603516,-8.5597733 0,-2.7287402 -2.1802149,-4.9478379 -4.8603516,-4.9478379 z"
     id="path876"
     style="fill:#ffffff;fill-opacity:1;stroke-width:1.38867" />
  <path
     d="m 6.9433594,9.7207031 c -1.5317051,0 -2.7773438,-1.2456386 -2.7773438,-2.7773437 0,-1.5317051 1.2456387,-2.7773438 2.7773438,-2.7773438 1.5317051,0 2.7773437,1.2456387 2.7773437,2.7773438 0,1.5317051 -1.2456386,2.7773437 -2.7773437,2.7773437 z m 0,-3.4716797 c -0.3818848,0 -0.694336,0.3110625 -0.694336,0.694336 0,0.3832734 0.3124512,0.6943359 0.694336,0.6943359 0.3818847,0 0.6943359,-0.3110625 0.6943359,-0.6943359 0,-0.3832735 -0.3124512,-0.694336 -0.6943359,-0.694336 z"
     id="path878"
     style="fill:#ffffff;fill-opacity:1;stroke-width:1.38867" />
  <path
     d="m 32.286621,33.328125 c -0.57491,0 -1.041504,-0.466594 -1.041504,-1.041504 V 16.316895 c 0,-0.574911 0.466594,-1.041504 1.041504,-1.041504 0.57491,0 1.041504,0.466593 1.041504,1.041504 v 15.969726 c 0,0.57491 -0.466594,1.041504 -1.041504,1.041504 z"
     id="path880"
     style="fill:#ffffff;fill-opacity:1;stroke-width:1.38867" />
  <path
     d="M 32.286621,24.996094 H 21.871582 c -0.391605,0 -0.749883,-0.21941 -0.927633,-0.569356 -0.17775,-0.349945 -0.144422,-0.767935 0.0861,-1.084552 l 2.33158,-3.206444 -2.33158,-3.206443 c -0.23052,-0.316617 -0.262459,-0.735996 -0.0861,-1.084553 0.176362,-0.348557 0.536028,-0.569355 0.927633,-0.569355 h 10.415039 c 0.57491,0 1.041504,0.466593 1.041504,1.041504 0,0.57491 -0.466594,1.041503 -1.041504,1.041503 h -8.369525 l 1.574754,2.16494 c 0.265236,0.365221 0.265236,0.859588 0,1.224808 l -1.574754,2.16494 h 8.369525 c 0.57491,0 1.041504,0.466594 1.041504,1.041504 0,0.57491 -0.466594,1.041504 -1.041504,1.041504 z"
     id="path882"
     style="fill:#ffffff;fill-opacity:1;stroke-width:1.38867" />
  <path
     d="M 32.286621,33.328125 H 4.8603516 C 2.1802148,33.328125 0,31.14791 0,28.467773 0,25.787637 2.1802148,23.607422 4.8603516,23.607422 h 8.3320314 c 1.531705,0 2.777344,-1.245639 2.777344,-2.777344 0,-1.531705 -1.245639,-2.777344 -2.777344,-2.777344 H 7.2905273 c -0.5749101,0 -1.0415039,-0.466593 -1.0415039,-1.041504 0,-0.57491 0.4665938,-1.041503 1.0415039,-1.041503 h 5.9018557 c 2.680137,0 4.860351,2.180214 4.860351,4.860351 0,2.680137 -2.180214,4.860352 -4.860351,4.860352 H 4.8603516 c -1.5317051,0 -2.7773438,1.245638 -2.7773438,2.777343 0,1.531706 1.2456387,2.777344 2.7773438,2.777344 H 32.286621 c 0.57491,0 1.041504,0.466594 1.041504,1.041504 0,0.57491 -0.466594,1.041504 -1.041504,1.041504 z"
     id="path884"
     style="fill:#ffffff;fill-opacity:1;stroke-width:1.38867" />
</svg>
