<?xml version="1.0" encoding="UTF-8" standalone="no"?>
<!-- Generator: Adobe Illustrator 19.0.0, SVG Export Plug-In . SVG Version: 6.00 Build 0)  -->

<svg
   version="1.1"
   id="Capa_1"
   x="0px"
   y="0px"
   viewBox="0 0 711 711"
   xml:space="preserve"
   sodipodi:docname="network.svg"
   inkscape:version="1.1 (ce6663b3b7, 2021-05-25)"
   width="711"
   height="711"
   xmlns:inkscape="http://www.inkscape.org/namespaces/inkscape"
   xmlns:sodipodi="http://sodipodi.sourceforge.net/DTD/sodipodi-0.dtd"
   xmlns="http://www.w3.org/2000/svg"
   xmlns:svg="http://www.w3.org/2000/svg"><defs
   id="defs37" /><sodipodi:namedview
   id="namedview35"
   pagecolor="#ffffff"
   bordercolor="#666666"
   borderopacity="1.0"
   inkscape:pageshadow="2"
   inkscape:pageopacity="0.0"
   inkscape:pagecheckerboard="0"
   showgrid="false"
   inkscape:zoom="0.75340906"
   inkscape:cx="-212.36803"
   inkscape:cy="249.53244"
   inkscape:window-width="1392"
   inkscape:window-height="851"
   inkscape:window-x="1672"
   inkscape:window-y="27"
   inkscape:window-maximized="1"
   inkscape:current-layer="Capa_1" />
<path
   d="m 633.43636,0 c -42.77634,0 -77.56363,34.787291 -77.56363,77.563636 0,13.379728 3.39987,25.970894 9.3852,36.972004 L 438.19576,241.5978 c -17.51645,-13.63827 -39.44111,-21.83416 -63.30485,-21.83416 -23.86375,0 -45.7884,8.19589 -63.31778,21.82123 l -99.13926,-99.13925 c 4.5504,-7.69173 7.32977,-16.53398 7.32977,-26.10017 0,-28.517559 -23.19153,-51.709086 -51.70909,-51.709086 -28.51757,0 -51.7091,23.191527 -51.7091,51.709086 0,28.51757 23.19153,51.7091 51.7091,51.7091 9.56618,0 18.40843,-2.77937 26.10016,-7.32977 l 99.13925,99.13926 c -13.62534,17.52938 -21.82123,39.45403 -21.82123,63.31778 0,23.86374 8.19589,45.7884 21.82123,63.30485 L 129.58298,550.21058 C 115.80251,537.70991 97.587982,530.01818 77.563636,530.01818 34.787291,530.01818 0,564.80547 0,607.58182 c 0,42.77634 34.787291,77.56363 77.563636,77.56363 42.776344,0 77.563634,-34.78729 77.563634,-77.56363 0,-13.37973 -3.39987,-25.97089 -9.3852,-36.972 L 311.58605,404.76584 c 14.29757,11.11745 31.54255,18.56356 50.39051,20.92925 v 131.34109 c -36.62296,6.17924 -64.63636,38.03204 -64.63636,76.40018 0,42.77635 34.78729,77.56364 77.56364,77.56364 42.77634,0 77.56363,-34.78729 77.56363,-77.56364 0,-38.35521 -28.0134,-70.20801 -64.63636,-76.40018 V 425.69509 c 18.84796,-2.36569 36.09294,-9.8118 50.39051,-20.92925 l 99.13925,99.13925 c -4.56332,7.70466 -7.34269,16.54691 -7.34269,26.11309 0,28.51757 23.19153,51.70909 51.70909,51.70909 28.51757,0 51.70909,-23.19152 51.70909,-51.70909 0,-28.51756 -23.19152,-51.70909 -51.70909,-51.70909 -9.56618,0 -18.40843,2.77936 -26.10016,7.32976 L 456.48785,386.4996 c 13.62535,-17.52938 21.82124,-39.45404 21.82124,-63.31778 0,-23.86375 -8.19589,-45.7884 -21.82124,-63.30486 l 124.9421,-124.94209 c 13.76754,12.50068 31.98207,20.1924 52.00641,20.1924 C 676.21271,155.12727 711,120.33998 711,77.563636 711,34.787291 676.21271,0 633.43636,0 Z M 142.2,116.34545 c 0,-14.25878 11.59576,-25.854541 25.85455,-25.854541 14.25878,0 25.85454,11.595761 25.85454,25.854541 0,14.25879 -11.59576,25.85455 -25.85454,25.85455 C 153.79576,142.2 142.2,130.60424 142.2,116.34545 Z M 77.563636,659.29091 c -28.517563,0 -51.709091,-23.19153 -51.709091,-51.70909 0,-28.51757 23.191528,-51.70909 51.709091,-51.70909 28.517564,0 51.709094,23.19152 51.709094,51.70909 0,28.51756 -23.19153,51.70909 -51.709094,51.70909 z M 426.6,633.43636 c 0,28.51757 -23.19153,51.70909 -51.70909,51.70909 -28.51756,0 -51.70909,-23.19152 -51.70909,-51.70909 0,-28.51756 23.19153,-51.70909 51.70909,-51.70909 28.51756,0 51.70909,23.19153 51.70909,51.70909 z M 374.89091,400.74545 c -42.77635,0 -77.56364,-34.78729 -77.56364,-77.56363 0,-42.77635 34.78729,-77.56364 77.56364,-77.56364 42.77634,0 77.56364,34.78729 77.56364,77.56364 0,42.77634 -34.7873,77.56363 -77.56364,77.56363 z m 232.69091,129.27273 c 0,14.25878 -11.59577,25.85455 -25.85455,25.85455 -14.25878,0 -25.85454,-11.59577 -25.85454,-25.85455 0,-14.25878 11.59576,-25.85454 25.85454,-25.85454 14.25878,0 25.85455,11.59576 25.85455,25.85454 z m 25.85454,-400.74545 c -28.51756,0 -51.70909,-23.19153 -51.70909,-51.709094 0,-28.517563 23.19153,-51.709091 51.70909,-51.709091 28.51757,0 51.70909,23.191528 51.70909,51.709091 0,28.517564 -23.19152,51.709094 -51.70909,51.709094 z"
   id="path2"
   style="fill:#ffffff;fill-opacity:1;stroke-width:12.9273" />
<g
   id="g4"
   style="fill:#ffffff;fill-opacity:1"
   transform="scale(12.927273)">
</g>
<g
   id="g6"
   style="fill:#ffffff;fill-opacity:1"
   transform="scale(12.927273)">
</g>
<g
   id="g8"
   style="fill:#ffffff;fill-opacity:1"
   transform="scale(12.927273)">
</g>
<g
   id="g10"
   style="fill:#ffffff;fill-opacity:1"
   transform="scale(12.927273)">
</g>
<g
   id="g12"
   style="fill:#ffffff;fill-opacity:1"
   transform="scale(12.927273)">
</g>
<g
   id="g14"
   style="fill:#ffffff;fill-opacity:1"
   transform="scale(12.927273)">
</g>
<g
   id="g16"
   style="fill:#ffffff;fill-opacity:1"
   transform="scale(12.927273)">
</g>
<g
   id="g18"
   style="fill:#ffffff;fill-opacity:1"
   transform="scale(12.927273)">
</g>
<g
   id="g20"
   style="fill:#ffffff;fill-opacity:1"
   transform="scale(12.927273)">
</g>
<g
   id="g22"
   style="fill:#ffffff;fill-opacity:1"
   transform="scale(12.927273)">
</g>
<g
   id="g24"
   style="fill:#ffffff;fill-opacity:1"
   transform="scale(12.927273)">
</g>
<g
   id="g26"
   style="fill:#ffffff;fill-opacity:1"
   transform="scale(12.927273)">
</g>
<g
   id="g28"
   style="fill:#ffffff;fill-opacity:1"
   transform="scale(12.927273)">
</g>
<g
   id="g30"
   style="fill:#ffffff;fill-opacity:1"
   transform="scale(12.927273)">
</g>
<g
   id="g32"
   style="fill:#ffffff;fill-opacity:1"
   transform="scale(12.927273)">
</g>
</svg>
