<?xml version="1.0" encoding="UTF-8" standalone="no"?>
<!-- Generator: Adobe Illustrator 16.0.0, SVG Export Plug-In . SVG Version: 6.00 Build 0)  -->

<svg
   version="1.1"
   id="Capa_1"
   x="0px"
   y="0px"
   width="711"
   height="789.08331"
   viewBox="0 0 711.00003 789.08335"
   xml:space="preserve"
   sodipodi:docname="play.svg"
   inkscape:version="1.1 (ce6663b3b7, 2021-05-25)"
   xmlns:inkscape="http://www.inkscape.org/namespaces/inkscape"
   xmlns:sodipodi="http://sodipodi.sourceforge.net/DTD/sodipodi-0.dtd"
   xmlns="http://www.w3.org/2000/svg"
   xmlns:svg="http://www.w3.org/2000/svg"><defs
   id="defs1048" /><sodipodi:namedview
   id="namedview1046"
   pagecolor="#ffffff"
   bordercolor="#666666"
   borderopacity="1.0"
   inkscape:pageshadow="2"
   inkscape:pageopacity="0.0"
   inkscape:pagecheckerboard="0"
   showgrid="false"
   inkscape:zoom="0.50576405"
   inkscape:cx="-423.1222"
   inkscape:cy="349.96556"
   inkscape:window-width="1392"
   inkscape:window-height="851"
   inkscape:window-x="1672"
   inkscape:window-y="27"
   inkscape:window-maximized="1"
   inkscape:current-layer="Capa_1" />
<g
   id="g1013"
   style="fill:#ffffff;fill-opacity:1"
   transform="matrix(4.8155561,0,0,4.8155561,-39.039713,4.2359931e-5)">
	<path
   d="M 34.857,3.613 C 20.084,-4.861 8.107,2.081 8.107,19.106 v 125.637 c 0,17.042 11.977,23.975 26.75,15.509 L 144.67,97.275 c 14.778,-8.477 14.778,-22.211 0,-30.686 z"
   id="path1011"
   style="fill:#ffffff;fill-opacity:1" />
</g>
<g
   id="g1015"
   style="fill:#ffffff;fill-opacity:1"
   transform="matrix(4.8155561,0,0,4.8155561,-39.039713,4.2359931e-5)">
</g>
<g
   id="g1017"
   style="fill:#ffffff;fill-opacity:1"
   transform="matrix(4.8155561,0,0,4.8155561,-39.039713,4.2359931e-5)">
</g>
<g
   id="g1019"
   style="fill:#ffffff;fill-opacity:1"
   transform="matrix(4.8155561,0,0,4.8155561,-39.039713,4.2359931e-5)">
</g>
<g
   id="g1021"
   style="fill:#ffffff;fill-opacity:1"
   transform="matrix(4.8155561,0,0,4.8155561,-39.039713,4.2359931e-5)">
</g>
<g
   id="g1023"
   style="fill:#ffffff;fill-opacity:1"
   transform="matrix(4.8155561,0,0,4.8155561,-39.039713,4.2359931e-5)">
</g>
<g
   id="g1025"
   style="fill:#ffffff;fill-opacity:1"
   transform="matrix(4.8155561,0,0,4.8155561,-39.039713,4.2359931e-5)">
</g>
<g
   id="g1027"
   style="fill:#ffffff;fill-opacity:1"
   transform="matrix(4.8155561,0,0,4.8155561,-39.039713,4.2359931e-5)">
</g>
<g
   id="g1029"
   style="fill:#ffffff;fill-opacity:1"
   transform="matrix(4.8155561,0,0,4.8155561,-39.039713,4.2359931e-5)">
</g>
<g
   id="g1031"
   style="fill:#ffffff;fill-opacity:1"
   transform="matrix(4.8155561,0,0,4.8155561,-39.039713,4.2359931e-5)">
</g>
<g
   id="g1033"
   style="fill:#ffffff;fill-opacity:1"
   transform="matrix(4.8155561,0,0,4.8155561,-39.039713,4.2359931e-5)">
</g>
<g
   id="g1035"
   style="fill:#ffffff;fill-opacity:1"
   transform="matrix(4.8155561,0,0,4.8155561,-39.039713,4.2359931e-5)">
</g>
<g
   id="g1037"
   style="fill:#ffffff;fill-opacity:1"
   transform="matrix(4.8155561,0,0,4.8155561,-39.039713,4.2359931e-5)">
</g>
<g
   id="g1039"
   style="fill:#ffffff;fill-opacity:1"
   transform="matrix(4.8155561,0,0,4.8155561,-39.039713,4.2359931e-5)">
</g>
<g
   id="g1041"
   style="fill:#ffffff;fill-opacity:1"
   transform="matrix(4.8155561,0,0,4.8155561,-39.039713,4.2359931e-5)">
</g>
<g
   id="g1043"
   style="fill:#ffffff;fill-opacity:1"
   transform="matrix(4.8155561,0,0,4.8155561,-39.039713,4.2359931e-5)">
</g>
</svg>
