<?xml version="1.0" encoding="UTF-8" standalone="no"?>
<svg
   fill="none"
   height="783.92419"
   viewBox="0 0 33.328125 36.746447"
   width="711"
   version="1.1"
   id="svg1313"
   sodipodi:docname="replay.svg"
   inkscape:version="1.1 (ce6663b3b7, 2021-05-25)"
   xmlns:inkscape="http://www.inkscape.org/namespaces/inkscape"
   xmlns:sodipodi="http://sodipodi.sourceforge.net/DTD/sodipodi-0.dtd"
   xmlns="http://www.w3.org/2000/svg"
   xmlns:svg="http://www.w3.org/2000/svg">
  <defs
     id="defs1317" />
  <sodipodi:namedview
     id="namedview1315"
     pagecolor="#ffffff"
     bordercolor="#666666"
     borderopacity="1.0"
     inkscape:pageshadow="2"
     inkscape:pageopacity="0.0"
     inkscape:pagecheckerboard="0"
     showgrid="false"
     inkscape:zoom="0.32373048"
     inkscape:cx="-182.25037"
     inkscape:cy="18.533936"
     inkscape:window-width="1392"
     inkscape:window-height="851"
     inkscape:window-x="1672"
     inkscape:window-y="27"
     inkscape:window-maximized="1"
     inkscape:current-layer="svg1313" />
  <g
     fill="rgb(0,0,0)"
     id="g1311"
     style="fill:#ffffff;fill-opacity:1"
     transform="matrix(1.7091346,0,0,1.7091346,-3.8455528,-2.1363656)">
    <path
       d="M 12.4714,1.41665 C 12.1492,1.15631 11.677,1.20643 11.4167,1.5286 11.1563,1.85078 11.2064,2.323 11.5286,2.58334 l 0.6,0.48484 H 12 c -5.39187,0 -9.75,4.41305 -9.75,9.84092 0,5.4278 4.35813,9.8409 9.75,9.8409 5.3919,0 9.75,-4.4131 9.75,-9.8409 0,-3.43286 -1.7424,-6.45723 -4.3841,-8.21773 -0.3447,-0.22971 -0.8103,-0.13651 -1.04,0.20817 -0.2297,0.34468 -0.1365,0.81032 0.2082,1.04003 C 18.7724,7.43131 20.25,9.9946 20.25,12.9091 20.25,17.5228 16.5493,21.25 12,21.25 7.45074,21.25 3.75,17.5228 3.75,12.9091 3.75,8.2954 7.45074,4.56818 12,4.56818 h 0.1286 l -0.6,0.48483 c -0.3222,0.26034 -0.3723,0.73257 -0.1119,1.05474 0.2603,0.32217 0.7325,0.37229 1.0547,0.11195 l 2.25,-1.81818 C 14.8976,4.25913 15,4.04472 15,3.81818 15,3.59163 14.8976,3.37722 14.7214,3.23483 Z"
       id="path1307"
       style="fill:#ffffff;fill-opacity:1" />
    <path
       d="M 9.67511,8.32402 C 9.93496,8.19913 10.2434,8.23424 10.4685,8.41434 l 5,3.99996 C 15.6464,12.5567 15.75,12.7722 15.75,13 c 0,0.2278 -0.1036,0.4433 -0.2815,0.5856 l -5,4 C 10.2434,17.7657 9.93496,17.8009 9.67511,17.676 9.41526,17.5511 9.25,17.2883 9.25,17 V 8.99999 c 0,-0.2883 0.16526,-0.55108 0.42511,-0.67597 z"
       id="path1309"
       style="fill:#ffffff;fill-opacity:1" />
  </g>
</svg>
