<?xml version="1.0" encoding="UTF-8" standalone="no"?>
<svg
   id="Capa_1"
   enable-background="new 0 0 512 512"
   height="512"
   viewBox="0 0 512 512"
   width="512"
   version="1.1"
   sodipodi:docname="robotic-hand.svg"
   inkscape:version="1.1 (ce6663b3b7, 2021-05-25)"
   xmlns:inkscape="http://www.inkscape.org/namespaces/inkscape"
   xmlns:sodipodi="http://sodipodi.sourceforge.net/DTD/sodipodi-0.dtd"
   xmlns="http://www.w3.org/2000/svg"
   xmlns:svg="http://www.w3.org/2000/svg">
  <defs
     id="defs1482" />
  <sodipodi:namedview
     id="namedview1480"
     pagecolor="#ffffff"
     bordercolor="#666666"
     borderopacity="1.0"
     inkscape:pageshadow="2"
     inkscape:pageopacity="0.0"
     inkscape:pagecheckerboard="0"
     showgrid="false"
     inkscape:zoom="1.2949219"
     inkscape:cx="20.464555"
     inkscape:cy="255.61388"
     inkscape:window-width="1600"
     inkscape:window-height="863"
     inkscape:window-x="3384"
     inkscape:window-y="0"
     inkscape:window-maximized="1"
     inkscape:current-layer="Capa_1" />
  <g
     id="XMLID_1371_"
     style="fill:#ffffff;fill-opacity:1">
    <g
       id="XMLID_270_"
       style="fill:#ffffff;fill-opacity:1">
      <path
         id="XMLID_793_"
         d="M 464.802,372.729 442.003,333.24 h -45.599 l -3.528,6.11 -60.825,-33.152 V 291.345 H 292.824 V 241 h -15 v 50.345 H 234.175 V 186.379 h 43.649 v 39.677 h 15 v -39.677 h 17.691 l 38.673,-38.594 v -41.727 h -15 v 35.504 l -29.877,29.816 H 292.824 219.175 207.821 L 177.81,141.553 V 68.5 H 286 v -15 H 177.811 V 15 H 334.19 V 53.5 H 301 v 15 h 33.189 V 91 h 15 V 0 H 162.811 v 147.794 l 38.826,38.585 h 17.539 v 104.965 h -39.227 v 14.853 l -60.825,33.152 -3.528,-6.11 H 69.998 L 47.199,372.728 66.965,406.965 74.192,512 h 46.792 l -2.176,-105.344 14.146,-24.502 55.696,-18.302 h 134.701 l 55.696,18.302 14.146,24.502 L 391.017,512 h 46.792 l 7.227,-105.035 z m -17.321,0 -14.139,24.49 h -28.278 l -14.139,-24.489 14.139,-24.49 h 28.278 z M 179.948,323.281 v 27.641 l -45.509,14.955 -7.813,-13.533 z M 78.658,348.24 h 28.278 l 7.954,13.777 6.185,10.712 -14.139,24.49 H 78.658 L 64.519,372.729 Z M 88.195,497 82.362,412.219 H 103.92 L 105.67,497 Z M 194.948,306.345 h 24.227 73.649 24.227 v 42.507 H 194.948 Z m 137.104,16.936 53.323,29.063 -7.54,13.06 -0.273,0.473 -45.509,-14.955 V 323.281 Z M 423.806,497 H 406.33 l 1.751,-84.781 h 21.558 z"
         style="fill:#ffffff;fill-opacity:1" />
      <path
         id="XMLID_1625_"
         d="m 85.296,365.229 h 15 v 15 h -15 z"
         style="fill:#ffffff;fill-opacity:1" />
      <path
         id="XMLID_2279_"
         d="m 411.704,365.229 h 15 v 15 h -15 z"
         style="fill:#ffffff;fill-opacity:1" />
    </g>
  </g>
</svg>
