<?xml version="1.0" encoding="UTF-8" standalone="no"?>
<svg
   id="Layer_1_1_"
   enable-background="new 0 0 64 64"
   height="711"
   viewBox="0 0 88.875 88.875"
   width="711"
   version="1.1"
   sodipodi:docname="root.svg"
   inkscape:version="1.1 (ce6663b3b7, 2021-05-25)"
   xmlns:inkscape="http://www.inkscape.org/namespaces/inkscape"
   xmlns:sodipodi="http://sodipodi.sourceforge.net/DTD/sodipodi-0.dtd"
   xmlns="http://www.w3.org/2000/svg"
   xmlns:svg="http://www.w3.org/2000/svg">
  <defs
     id="defs1546" />
  <sodipodi:namedview
     id="namedview1544"
     pagecolor="#ffffff"
     bordercolor="#666666"
     borderopacity="1.0"
     inkscape:pageshadow="2"
     inkscape:pageopacity="0.0"
     inkscape:pagecheckerboard="0"
     showgrid="false"
     inkscape:zoom="0.16186524"
     inkscape:cx="1346.7994"
     inkscape:cy="1062.6123"
     inkscape:window-width="1600"
     inkscape:window-height="863"
     inkscape:window-x="3064"
     inkscape:window-y="0"
     inkscape:window-maximized="1"
     inkscape:current-layer="Layer_1_1_" />
  <path
     d="m 78.121125,31.137356 c -3.16395,-2.846962 -6.798938,-5.015512 -10.805719,-6.447881 l -7.11,-2.538863 C 56.090494,20.681212 53.325,16.757381 53.325,12.386212 V 1.48125 C 53.325,0.6636 52.662881,0 51.84375,0 H 37.03125 C 36.212119,0 35.55,0.6636 35.55,1.48125 v 15.887887 c 0,5.375457 -4.034925,9.813282 -9.3852,10.32135 l -9.182269,0.875419 C 9.597019,29.2695 3.3091125,34.271681 0.9642938,41.3091 0.3243938,43.225837 0,45.221081 0,47.241506 V 88.875 H 2.9625 V 83.563237 L 7.8402562,88.440994 9.934744,86.346506 2.9625,79.374262 V 66.856219 l 2.494425,2.078193 c 2.2752,1.896 3.757931,4.553363 4.174162,7.483275 0.539175,3.766819 2.472207,7.149994 5.443594,9.5274 l 3.255788,2.605519 1.851562,-2.313712 -3.255787,-2.605519 C 14.545875,81.726487 12.996487,79.0158 12.565444,75.998494 12.042562,72.341287 10.192481,69.024769 7.3544062,66.659212 L 2.9625,62.999044 v -7.769157 l 4.8570187,-7.80915 C 8.545331,46.252031 9.404456,45.203306 10.36875,44.284931 v 10.399856 l -1.460513,8.766038 2.922507,0.487331 0.91245,-5.473219 2.365556,3.155063 2.37,-1.7775 -4.1475,-5.529506 V 50.3625 h 5.925 V 47.4 h -5.925 v -5.314725 c 2.35815,-1.36275 5.061431,-2.119669 7.902469,-2.119669 h 0.02962 l 12.944643,0.0237 -3.251343,4.697044 c -5.659857,8.1765 -9.180788,17.723156 -10.193963,27.616425 l -0.447337,1.780462 c -0.596944,2.398144 -1.838232,4.590394 -3.587588,6.338269 l 2.094488,2.094488 c 2.130037,-2.128557 3.639431,-4.796288 4.366725,-7.71435 l 0.417712,-1.669369 4.483744,-8.071331 c 0.254775,-0.457707 0.530287,-0.903563 0.798394,-1.355344 0.706556,3.516487 2.193731,6.870037 4.345987,9.739219 l 1.130194,1.506431 2.37,-1.7775 -1.130194,-1.506431 c -2.024869,-2.7018 -3.390581,-5.890932 -3.94605,-9.220782 l -0.4029,-2.418881 c 1.027988,-1.461994 2.12115,-2.87955 3.28245,-4.234894 l 1.131675,-1.319793 c 0.262181,3.032118 1.0665,6.0198 2.426288,8.740856 l 2.053012,4.104544 2.649956,-1.325719 -2.053012,-4.104544 C 39.284231,58.9656 38.5125,55.690556 38.5125,52.421437 V 51.15645 l 9.047475,-10.555388 0.753956,0.645825 c 1.284244,1.100569 2.481094,2.28705 3.592031,3.541669 l -0.01926,0.0044 c 0.01333,0.05481 1.299056,5.4984 -1.368675,10.832381 -3.008419,6.018319 -5.923519,19.045913 -6.046462,19.596938 l 2.892881,0.642862 c 0.01629,-0.07406 0.945037,-4.228969 2.260387,-8.868244 l 4.023075,5.028844 2.315194,-1.850081 -5.302875,-6.630075 c 0.789506,-2.497388 1.653075,-4.8822 2.509238,-6.594525 1.413112,-2.826225 1.893037,-5.633194 1.989318,-7.90395 1.903407,2.918062 3.390582,6.108675 4.405238,9.49185 l 1.204256,3.996412 2.919544,13.137207 c -0.04443,4.003862 -2.186321,7.75735 -5.622821,9.81925 l -1.056131,0.633975 1.524206,2.540344 1.056131,-0.633975 c 4.305994,-2.584782 6.9915,-7.284788 7.056675,-12.3003 0,-0.0015 0,-0.0015 0,-0.003 l 1.7064,-13.654162 c 0.8532,-6.8256 -0.09332,-13.791919 -2.741793,-20.143519 -0.250332,-0.601388 -0.536213,-1.180556 -0.830982,-1.7538 l 4.169719,1.604194 c 0.256256,0.09776 0.499181,0.222187 0.752475,0.327356 l 4.177125,26.459569 c 0.1659,1.047243 0.564356,2.067825 1.153894,2.953612 l 1.901925,2.852888 -1.361269,6.804862 2.904731,0.582131 0.779138,-3.900131 1.750837,2.626256 c 0.999844,1.497544 0.999844,3.430575 0,4.9296 l -0.771731,1.156857 2.4648,1.642706 0.771731,-1.156856 c 1.664925,-2.495907 1.664925,-5.722069 0,-8.216494 L 77.497519,69.87945 C 77.1435,69.349162 76.905019,68.735925 76.804294,68.107875 L 75.551156,60.171337 79.325381,62.05845 80.6511,59.408494 74.983838,56.574862 72.951563,43.7028 c 4.671862,2.663287 8.576437,6.554531 11.208618,11.296012 L 85.9125,58.152394 V 71.1 H 88.875 V 55.283212 c 0,-9.194118 -3.919387,-17.995706 -10.753875,-24.145856 z m -8.106881,7.877288 -7.992825,-3.075075 c -2.411475,-2.946207 -5.51025,-5.291025 -9.1008,-6.830044 l -1.974507,-0.845794 -1.165743,2.722538 1.974506,0.845793 c 5.056987,2.167069 9.006,6.159038 11.122706,11.236763 2.448506,5.876119 3.325406,12.321037 2.5359,18.637087 l -0.647306,5.176969 -1.134638,-5.0955 -1.230918,-4.1001 C 60.215775,50.405456 56.011987,43.944244 50.242519,38.99835 l -1.878225,-1.610119 c -0.299213,-0.254775 -0.681375,-0.377719 -1.07835,-0.352537 -0.392532,0.03111 -0.756919,0.214781 -1.011694,0.512512 L 32.288287,53.864175 c -2.578856,3.0099 -4.862943,6.293831 -6.787087,9.755512 l -0.244406,0.439932 c 1.659,-6.3042 4.409681,-12.309188 8.133543,-17.687607 l 4.857019,-7.016681 c 0.314025,-0.453262 0.349575,-1.041319 0.09332,-1.530131 -0.251813,-0.48585 -0.756919,-0.79395 -1.306463,-0.79395 L 21.267788,37.00311 c -0.01185,0 -0.0237,0 -0.03407,0 -6.527869,0 -12.482494,3.307631 -15.930844,8.853431 L 2.9625,49.618912 v -2.377406 c 0,-1.700475 0.2740313,-3.381694 0.8102437,-4.996256 C 5.7487312,36.318769 11.0442,32.106094 17.262487,31.513594 l 9.182269,-0.875419 C 33.325162,29.984944 38.5125,24.28065 38.5125,17.369137 V 2.9625 h 11.85 v 9.423712 c 0,5.619863 3.555,10.665 8.848987,12.555075 l 7.11,2.538863 c 3.640913,1.300537 6.9441,3.2706 9.819207,5.858344 5.351756,4.817025 8.720118,11.424881 9.554062,18.505256 -3.7209,-5.813906 -9.210412,-10.340606 -15.680512,-12.829106 z"
     id="path1541"
     style="fill:#ffffff;fill-opacity:1;stroke-width:1.48125" />
</svg>
