<?xml version="1.0" encoding="UTF-8" standalone="no"?>
<svg
   height="711.02362pt"
   viewBox="0 0 711 711.70971"
   width="711pt"
   version="1.1"
   id="svg1615"
   sodipodi:docname="service.svg"
   inkscape:version="1.1 (ce6663b3b7, 2021-05-25)"
   xmlns:inkscape="http://www.inkscape.org/namespaces/inkscape"
   xmlns:sodipodi="http://sodipodi.sourceforge.net/DTD/sodipodi-0.dtd"
   xmlns="http://www.w3.org/2000/svg"
   xmlns:svg="http://www.w3.org/2000/svg">
  <defs
     id="defs1619" />
  <sodipodi:namedview
     id="namedview1617"
     pagecolor="#ffffff"
     bordercolor="#666666"
     borderopacity="1.0"
     inkscape:pageshadow="2"
     inkscape:pageopacity="0.0"
     inkscape:pagecheckerboard="0"
     inkscape:document-units="pt"
     showgrid="false"
     inkscape:zoom="0.2184754"
     inkscape:cx="1542.5078"
     inkscape:cy="659.11312"
     inkscape:window-width="1600"
     inkscape:window-height="863"
     inkscape:window-x="3064"
     inkscape:window-y="0"
     inkscape:window-maximized="1"
     inkscape:current-layer="svg1615" />
  <path
     d="M 1.2911225,65.235052 48.719032,148.22902 c 1.59979,2.80451 4.277486,4.83351 7.408781,5.61877 l 44.247847,11.06196 151.76053,151.76053 16.76852,-16.76364 -154.13582,-154.13095 c -1.51688,-1.52176 -3.41907,-2.59967 -5.50172,-3.12156 L 66.750808,131.98725 26.370752,61.284352 60.990589,26.664514 131.72276,67.083588 142.39452,109.59995 c 0.51701,2.08753 1.59979,3.99459 3.11668,5.51147 L 299.64701,269.24725 316.41066,252.47872 164.65014,100.71819 153.58818,56.494739 c -0.78527,-3.136174 -2.81426,-5.818748 -5.61878,-7.423415 L 64.970553,1.6482906 C 60.341894,-0.9855082 54.518269,-0.20512301 50.743155,3.5553572 L 3.320124,50.983267 c -3.81413302,3.750728 -4.6432919,9.584105 -2.0290015,14.251785 z m 0,0"
     id="path1605"
     style="fill:#ffffff;fill-opacity:1;stroke-width:1.24862" />
  <path
     d="M 494.2263,233.67144 233.38743,494.51519 216.61891,477.74666 477.46266,216.90779 Z m 0,0"
     id="path1607"
     style="fill:#ffffff;fill-opacity:1;stroke-width:1.24862" />
  <path
     d="m 187.7349,503.74324 c -2.14606,-3.57027 -5.99921,-5.75047 -10.16451,-5.75047 H 106.4334 c -4.16043,0 -8.018463,2.1802 -10.159645,5.75047 l -35.570933,59.28002 c -2.258239,3.7556 -2.258239,8.45254 0,12.21301 l 35.570933,59.28002 c 2.141182,3.5654 5.999215,5.75046 10.159645,5.75046 h 71.13699 c 4.1653,0 8.01845,-2.18506 10.16451,-5.75046 l 35.56605,-59.28002 c 2.25825,-3.76047 2.25825,-8.45741 0,-12.21301 z M 170.86395,616.55281 H 113.14471 L 84.689911,569.12977 113.14471,521.70185 h 57.71924 l 28.4548,47.42792 z m 0,0"
     id="path1609"
     style="fill:#ffffff;fill-opacity:1;stroke-width:1.24862" />
  <path
     d="m 568.83113,284.57694 c 78.30678,0.26338 142.00573,-63.00635 142.2691,-141.31313 0.0391,-11.92039 -1.4242,-23.79199 -4.35553,-35.34657 -1.58027,-6.35526 -8.01359,-10.223041 -14.36883,-8.642762 -2.08754,0.521883 -3.98972,1.599782 -5.51149,3.116662 L 613.05947,176.1473 554.50131,156.63279 534.97217,98.089269 608.77711,24.269706 c 4.62865,-4.633538 4.62377,-12.139866 -0.01,-16.7685266 -1.5264,-1.5266282 -3.4481,-2.6094119 -5.55027,-3.1264178 C 527.27562,-14.856856 450.12966,31.11271 430.89805,107.04906 c -2.92157,11.52044 -4.37991,23.36278 -4.34089,35.24903 0.0292,9.33535 0.9901,18.64144 2.88255,27.78171 L 169.78116,429.73347 c -9.14026,-1.88756 -18.44635,-2.84841 -27.77683,-2.88255 -78.579915,0 -142.278855,63.69894 -142.278855,142.27885 0,78.57503 63.69894,142.27397 142.278855,142.27397 78.57503,0 142.27398,-63.69894 142.27398,-142.27397 -0.0292,-9.33536 -0.995,-18.64145 -2.88256,-27.78172 l 62.16256,-62.16256 27.18667,27.18668 c 4.63354,4.62866 12.13499,4.62866 16.76852,0 l 5.92607,-5.93093 c 5.19931,-5.16517 13.60308,-5.16517 18.8024,0 5.19443,5.17981 5.20419,13.58846 0.0245,18.78289 -0.005,0.005 -0.0146,0.0146 -0.0245,0.0245 l -5.92605,5.92605 c -4.62866,4.62866 -4.62866,12.13499 0,16.76365 l 141.43506,141.43506 c 37.19998,37.54141 97.78714,37.81454 135.32854,0.61455 37.53653,-37.19999 37.80966,-97.79201 0.60968,-135.32854 -0.19997,-0.20485 -0.40483,-0.40969 -0.60968,-0.61457 L 541.64446,406.61456 c -4.62866,-4.62866 -12.13498,-4.62866 -16.76364,0 l -5.92606,5.92604 c -5.20419,5.17006 -13.60308,5.17006 -18.80728,0 -5.18956,-5.17982 -5.20419,-13.58845 -0.0245,-18.77802 0.01,-0.01 0.0195,-0.0146 0.0245,-0.0245 l 5.93093,-5.93093 c 4.62866,-4.62865 4.62866,-12.13499 0,-16.76365 l -27.18667,-27.18667 62.16257,-62.16256 c 9.14025,1.88757 18.44634,2.85329 27.77682,2.88255 z m 46.58413,403.11772 c -8.61351,-0.0146 -17.15384,-1.57052 -25.2162,-4.59939 l 92.59758,-92.60246 c 13.97377,37.17072 -4.82864,78.62869 -41.99936,92.60246 -8.11113,3.04837 -16.71,4.60916 -25.38202,4.59939 z M 481.09633,379.54493 c -13.12997,15.66137 -11.07171,39.00464 4.58964,52.12974 13.76404,11.53507 33.82481,11.52532 47.57422,-0.0341 l 133.05569,133.17268 c 1.4437,1.44859 2.79474,2.97522 4.10191,4.52624 L 569.04574,670.71153 c -1.55589,-1.30227 -3.08252,-2.65331 -4.53111,-4.1019 L 431.35652,533.44177 c 13.12999,-15.66135 11.07172,-39.00462 -4.58963,-52.12972 -13.76405,-11.53996 -33.8297,-11.52531 -47.57911,0.0292 L 360.21954,462.37304 462.1232,360.62057 Z M 528.97296,260.29721 260.00833,529.20819 c -2.95083,2.94596 -4.13606,7.22345 -3.13131,11.26681 16.26616,63.87939 -22.33364,128.85134 -86.21792,145.11262 C 106.77969,701.85378 41.807745,663.25398 25.541592,599.36969 9.2803152,535.49029 47.880118,470.51834 111.7644,454.25218 c 19.32428,-4.91641 39.57041,-4.91641 58.8947,0 4.04336,0.99012 8.3111,-0.19508 11.26681,-3.12641 L 450.82714,182.20991 c 2.94595,-2.94595 4.13116,-7.22344 3.11665,-11.26193 -16.15397,-63.13316 21.92882,-127.407635 85.062,-143.566486 11.93013,-3.04838 24.26997,-4.218959 36.56104,-3.453206 l -62.54299,62.567383 c -3.1752,3.170315 -4.28724,7.867258 -2.86791,12.125235 l 23.70908,71.141864 c 1.1852,3.53612 3.96532,6.31624 7.50631,7.4917 l 71.14188,23.71395 c 4.2531,1.41933 8.95003,0.31216 12.12523,-2.85816 l 62.54299,-62.54299 c 0.14145,2.26311 0.21461,4.50185 0.21461,6.73082 0.33166,65.14753 -52.20777,118.22835 -117.3553,118.56489 -10.07185,0.0487 -20.10956,-1.19008 -29.86436,-3.68731 -4.04338,-1.00962 -8.32086,0.17071 -11.26681,3.11666 h 0.0633 z m 0,0"
     id="path1611"
     style="fill:#ffffff;fill-opacity:1;stroke-width:1.24862" />
  <path
     d="m 612.79608,596.31155 -16.76852,16.76854 -118.56003,-118.56002 16.76366,-16.76853 z m 0,0"
     id="path1613"
     style="fill:#ffffff;fill-opacity:1;stroke-width:1.24862" />
</svg>
