<?xml version="1.0" encoding="UTF-8" standalone="no"?>
<!-- Created with Inkscape (http://www.inkscape.org/) -->

<svg
   width="207.57471mm"
   height="50.000008mm"
   viewBox="0 0 207.57471 50.000008"
   version="1.1"
   id="svg8"
   inkscape:version="1.1 (ce6663b3b7, 2021-05-25)"
   sodipodi:docname="logo_full_white.svg"
   xmlns:inkscape="http://www.inkscape.org/namespaces/inkscape"
   xmlns:sodipodi="http://sodipodi.sourceforge.net/DTD/sodipodi-0.dtd"
   xmlns="http://www.w3.org/2000/svg"
   xmlns:svg="http://www.w3.org/2000/svg"
   xmlns:rdf="http://www.w3.org/1999/02/22-rdf-syntax-ns#"
   xmlns:cc="http://creativecommons.org/ns#"
   xmlns:dc="http://purl.org/dc/elements/1.1/">
  <defs
     id="defs2" />
  <sodipodi:namedview
     id="base"
     pagecolor="#ffffff"
     bordercolor="#666666"
     borderopacity="1.0"
     inkscape:pageopacity="0.0"
     inkscape:pageshadow="2"
     inkscape:zoom="0.69999999"
     inkscape:cx="262.85715"
     inkscape:cy="81.428573"
     inkscape:document-units="mm"
     inkscape:current-layer="layer1"
     showgrid="false"
     inkscape:window-width="1600"
     inkscape:window-height="863"
     inkscape:window-x="3064"
     inkscape:window-y="0"
     inkscape:window-maximized="1"
     inkscape:pagecheckerboard="0" />
  <metadata
     id="metadata5">
    <rdf:RDF>
      <cc:Work
         rdf:about="">
        <dc:format>image/svg+xml</dc:format>
        <dc:type
           rdf:resource="http://purl.org/dc/dcmitype/StillImage" />
      </cc:Work>
    </rdf:RDF>
  </metadata>
  <g
     inkscape:label="Calque 1"
     inkscape:groupmode="layer"
     id="layer1"
     transform="translate(-23.347293,299.07198)">
    <g
       id="g10682"
       style="fill:#ffffff;fill-opacity:1">
      <text
         xml:space="preserve"
         style="font-size:52.3754px;line-height:1.25;font-family:'RINTIK SENDU';-inkscape-font-specification:'RINTIK SENDU';letter-spacing:0px;word-spacing:0px;fill:#ffffff;fill-opacity:1;stroke-width:0.692569"
         x="72.218979"
         y="-285.90518"
         id="text3816"
         transform="scale(1.0786827,0.92705668)"><tspan
           sodipodi:role="line"
           style="font-style:normal;font-variant:normal;font-weight:normal;font-stretch:normal;font-size:52.3754px;font-family:'RINTIK SENDU';-inkscape-font-specification:'RINTIK SENDU';fill:#ffffff;fill-opacity:1;stroke-width:0.692569"
           x="72.218979"
           y="-285.90518"
           id="tspan3818">Ronoco</tspan></text>
      <text
         xml:space="preserve"
         style="font-size:15.4093px;line-height:1.25;font-family:'RINTIK SENDU';-inkscape-font-specification:'RINTIK SENDU';letter-spacing:0px;word-spacing:0px;fill:#ffffff;fill-opacity:1;stroke-width:0.642051"
         x="162.18207"
         y="-249.16226"
         id="text4740"><tspan
           sodipodi:role="line"
           id="tspan4738"
           style="font-size:15.4093px;fill:#ffffff;fill-opacity:1;stroke-width:0.642051"
           x="162.18207"
           y="-249.16226">ros no code</tspan></text>
      <path
         style="fill:#ffffff;fill-opacity:1;stroke:none;stroke-width:0.147317;stroke-opacity:1"
         d="m 45.359338,-249.20672 c -3.473215,-0.39327 -7.230799,-1.69097 -10.163937,-3.51016 -5.006992,-3.10544 -8.974482,-8.103 -10.747962,-13.53845 -0.945522,-2.8979 -1.103349,-4.02155 -1.100097,-7.83206 0.0033,-3.86357 0.152187,-4.87162 1.172714,-7.93963 2.76419,-8.31004 9.845587,-14.6274 18.485579,-16.49109 8.353248,-1.80184 17.085112,0.85707 23.107944,7.0365 7.466379,7.66052 9.209527,19.18772 4.34463,28.73046 -1.275918,2.50277 -2.601343,4.32152 -4.621707,6.34187 -3.268705,3.26872 -7.15676,5.48612 -11.61158,6.6222 -2.570322,0.65551 -6.138904,0.88911 -8.865584,0.58036 z m 2.78193,-10.2594 c 0.287418,-0.23888 0.312935,-0.42437 0.347789,-2.52794 l 0.03757,-2.27015 1.455878,-0.79431 c 1.313498,-0.71661 1.499333,-0.77914 1.900284,-0.63937 0.565027,0.19698 1.88309,0.20004 2.394565,0.006 0.340823,-0.12957 0.5857,-0.0467 1.85028,0.62612 l 1.457467,0.77544 5.47e-4,2.2466 c 0.0011,2.93663 -0.08456,2.83586 2.408691,2.83586 1.581831,0 1.850728,-0.0356 2.065073,-0.2723 0.218835,-0.2418 0.242018,-0.68309 0.206973,-3.94075 l -0.03943,-3.66844 -2.554072,-1.39953 -2.554076,-1.39951 -0.348595,-0.87069 c -0.67521,-1.68644 -2.020625,-2.64081 -3.728069,-2.64451 l -0.93502,-0.003 -3.151139,-3.60044 c -2.848991,-3.25519 -3.140732,-3.63747 -3.042559,-3.98679 0.05971,-0.21248 0.108314,-1.04928 0.107985,-1.85953 -5.48e-4,-1.27663 -0.05144,-1.58127 -0.381574,-2.28343 -0.45368,-0.96485 -1.100449,-1.76781 -1.42396,-1.76781 -0.55706,0 -1.04819,0.99041 -0.621809,1.25394 0.40369,0.24949 0.929725,1.6586 0.995922,2.66782 0.132329,2.01747 -0.783579,3.61908 -2.57334,4.49984 -0.871196,0.42871 -1.138773,0.49009 -2.105613,0.48293 -1.332769,-0.01 -2.175118,-0.34264 -3.155861,-1.24666 -1.939181,-1.78747 -1.997821,-4.86397 -0.128343,-6.73346 0.696942,-0.69694 1.751901,-1.23227 2.621586,-1.3303 0.437739,-0.0493 0.75811,-0.1961 1.01626,-0.46554 0.358425,-0.37411 0.365139,-0.41041 0.136358,-0.73706 -0.220875,-0.31534 -0.318615,-0.3373 -1.19006,-0.26734 -0.686122,0.0551 -1.248993,0.22426 -2.029616,0.61007 -1.800781,0.88999 -2.967731,2.46196 -3.348805,4.51106 -0.464899,2.49989 1.003823,5.38754 3.313806,6.51526 1.105292,0.53961 2.761825,0.79634 3.806075,0.58986 0.668863,-0.13229 0.8352,-0.119 1.096261,0.0871 1.321806,1.04374 7.138858,6.28843 7.100924,6.40223 -0.02646,0.0793 -1.126323,0.72474 -2.444232,1.43443 -1.317914,0.70967 -2.524587,1.4065 -2.681503,1.54851 -0.266993,0.24161 -0.285299,0.48361 -0.285299,3.77099 0,4.38638 -0.162244,4.10205 2.340769,4.10205 1.451716,0 1.804578,-0.0441 2.061659,-0.25781 z m 3.695827,-7.85837 c -0.808011,-0.46876 -1.237453,-1.20539 -1.237453,-2.12264 0,-2.44483 3.058506,-3.35485 4.542783,-1.35165 0.235511,0.31786 0.308178,0.6332 0.308178,1.33733 0,0.7884 -0.06127,1.00174 -0.424542,1.47802 -0.740522,0.97087 -2.149454,1.262 -3.188966,0.65894 z m -10.276852,-12.53457 c 0.919346,-0.50823 1.482631,-1.39735 1.559625,-2.46175 0.07641,-1.05663 -0.146299,-1.78614 -0.758044,-2.48288 -1.373036,-1.5638 -3.898298,-1.41109 -5.059708,0.30601 -0.899793,1.33027 -0.785304,2.82376 0.308151,4.01987 0.332293,0.3635 0.869335,0.75782 1.19343,0.87627 0.782593,0.28602 1.974806,0.17463 2.756546,-0.25752 z m -2.38825,-1.2557 c -0.742124,-0.3812 -1.124373,-1.21452 -0.900253,-1.96255 0.604976,-2.01924 3.404656,-1.59657 3.404656,0.51399 0,0.38783 -0.125157,0.66064 -0.478784,1.04366 -0.595561,0.64502 -1.288493,0.78352 -2.025619,0.4049 z"
         id="path167" />
    </g>
  </g>
</svg>
