<?xml version="1.0" encoding="UTF-8" standalone="no"?>
<!-- Created with Inkscape (http://www.inkscape.org/) -->

<svg
   width="227.57471mm"
   height="125.80006mm"
   viewBox="0 0 227.57471 125.80006"
   version="1.1"
   id="svg8"
   inkscape:version="1.1 (ce6663b3b7, 2021-05-25)"
   sodipodi:docname="logo_full_white_rolling.svg"
   xmlns:inkscape="http://www.inkscape.org/namespaces/inkscape"
   xmlns:sodipodi="http://sodipodi.sourceforge.net/DTD/sodipodi-0.dtd"
   xmlns="http://www.w3.org/2000/svg"
   xmlns:svg="http://www.w3.org/2000/svg"
   xmlns:rdf="http://www.w3.org/1999/02/22-rdf-syntax-ns#"
   xmlns:cc="http://creativecommons.org/ns#"
   xmlns:dc="http://purl.org/dc/elements/1.1/">
  <defs
     id="defs2" />
  <sodipodi:namedview
     id="base"
     pagecolor="#ffffff"
     bordercolor="#666666"
     borderopacity="1.0"
     inkscape:pageopacity="0.0"
     inkscape:pageshadow="2"
     inkscape:zoom="0.70710678"
     inkscape:cx="423.55696"
     inkscape:cy="312.5412"
     inkscape:document-units="mm"
     inkscape:current-layer="layer1"
     showgrid="false"
     inkscape:window-width="1600"
     inkscape:window-height="863"
     inkscape:window-x="3064"
     inkscape:window-y="0"
     inkscape:window-maximized="1"
     inkscape:pagecheckerboard="0"
     fit-margin-top="10"
     fit-margin-left="10"
     fit-margin-right="10"
     fit-margin-bottom="10"
     lock-margins="true" />
  <metadata
     id="metadata5">
    <rdf:RDF>
      <cc:Work
         rdf:about="">
        <dc:format>image/svg+xml</dc:format>
        <dc:type
           rdf:resource="http://purl.org/dc/dcmitype/StillImage" />
      </cc:Work>
    </rdf:RDF>
  </metadata>
  <g
     inkscape:label="Calque 1"
     inkscape:groupmode="layer"
     id="layer1"
     transform="translate(-13.347293,309.07198)">
    <g
       id="g15796"
       style="fill:#ffffff;fill-opacity:1"
       inkscape:export-filename="/home/sedelpeuch/g10682.png"
       inkscape:export-xdpi="96"
       inkscape:export-ydpi="96">
      <text
         xml:space="preserve"
         style="font-size:52.3754px;line-height:1.25;font-family:'RINTIK SENDU';-inkscape-font-specification:'RINTIK SENDU';letter-spacing:0px;word-spacing:0px;fill:#ffffff;fill-opacity:1;stroke-width:0.692569"
         x="72.218979"
         y="-285.90518"
         id="text3816"
         transform="scale(1.0786827,0.92705668)"><tspan
           sodipodi:role="line"
           style="font-style:normal;font-variant:normal;font-weight:normal;font-stretch:normal;font-size:52.3754px;font-family:'RINTIK SENDU';-inkscape-font-specification:'RINTIK SENDU';fill:#ffffff;fill-opacity:1;stroke-width:0.692569"
           x="72.218979"
           y="-285.90518"
           id="tspan3818">Ronoco</tspan></text>
      <text
         xml:space="preserve"
         style="font-size:15.4093px;line-height:1.25;font-family:'RINTIK SENDU';-inkscape-font-specification:'RINTIK SENDU';letter-spacing:0px;word-spacing:0px;fill:#ffffff;fill-opacity:1;stroke-width:0.642051"
         x="162.18207"
         y="-249.16226"
         id="text4740"><tspan
           sodipodi:role="line"
           id="tspan4738"
           style="font-size:15.4093px;fill:#ffffff;fill-opacity:1;stroke-width:0.642051"
           x="162.18207"
           y="-249.16226">ros no code</tspan></text>
      <path
         style="fill:#ffffff;fill-opacity:1;stroke:none;stroke-width:0.147317;stroke-opacity:1"
         d="m 45.359338,-249.20672 c -3.473215,-0.39327 -7.230799,-1.69097 -10.163937,-3.51016 -5.006992,-3.10544 -8.974482,-8.103 -10.747962,-13.53845 -0.945522,-2.8979 -1.103349,-4.02155 -1.100097,-7.83206 0.0033,-3.86357 0.152187,-4.87162 1.172714,-7.93963 2.76419,-8.31004 9.845587,-14.6274 18.485579,-16.49109 8.353248,-1.80184 17.085112,0.85707 23.107944,7.0365 7.466379,7.66052 9.209527,19.18772 4.34463,28.73046 -1.275918,2.50277 -2.601343,4.32152 -4.621707,6.34187 -3.268705,3.26872 -7.15676,5.48612 -11.61158,6.6222 -2.570322,0.65551 -6.138904,0.88911 -8.865584,0.58036 z m 2.78193,-10.2594 c 0.287418,-0.23888 0.312935,-0.42437 0.347789,-2.52794 l 0.03757,-2.27015 1.455878,-0.79431 c 1.313498,-0.71661 1.499333,-0.77914 1.900284,-0.63937 0.565027,0.19698 1.88309,0.20004 2.394565,0.006 0.340823,-0.12957 0.5857,-0.0467 1.85028,0.62612 l 1.457467,0.77544 5.47e-4,2.2466 c 0.0011,2.93663 -0.08456,2.83586 2.408691,2.83586 1.581831,0 1.850728,-0.0356 2.065073,-0.2723 0.218835,-0.2418 0.242018,-0.68309 0.206973,-3.94075 l -0.03943,-3.66844 -2.554072,-1.39953 -2.554076,-1.39951 -0.348595,-0.87069 c -0.67521,-1.68644 -2.020625,-2.64081 -3.728069,-2.64451 l -0.93502,-0.003 -3.151139,-3.60044 c -2.848991,-3.25519 -3.140732,-3.63747 -3.042559,-3.98679 0.05971,-0.21248 0.108314,-1.04928 0.107985,-1.85953 -5.48e-4,-1.27663 -0.05144,-1.58127 -0.381574,-2.28343 -0.45368,-0.96485 -1.100449,-1.76781 -1.42396,-1.76781 -0.55706,0 -1.04819,0.99041 -0.621809,1.25394 0.40369,0.24949 0.929725,1.6586 0.995922,2.66782 0.132329,2.01747 -0.783579,3.61908 -2.57334,4.49984 -0.871196,0.42871 -1.138773,0.49009 -2.105613,0.48293 -1.332769,-0.01 -2.175118,-0.34264 -3.155861,-1.24666 -1.939181,-1.78747 -1.997821,-4.86397 -0.128343,-6.73346 0.696942,-0.69694 1.751901,-1.23227 2.621586,-1.3303 0.437739,-0.0493 0.75811,-0.1961 1.01626,-0.46554 0.358425,-0.37411 0.365139,-0.41041 0.136358,-0.73706 -0.220875,-0.31534 -0.318615,-0.3373 -1.19006,-0.26734 -0.686122,0.0551 -1.248993,0.22426 -2.029616,0.61007 -1.800781,0.88999 -2.967731,2.46196 -3.348805,4.51106 -0.464899,2.49989 1.003823,5.38754 3.313806,6.51526 1.105292,0.53961 2.761825,0.79634 3.806075,0.58986 0.668863,-0.13229 0.8352,-0.119 1.096261,0.0871 1.321806,1.04374 7.138858,6.28843 7.100924,6.40223 -0.02646,0.0793 -1.126323,0.72474 -2.444232,1.43443 -1.317914,0.70967 -2.524587,1.4065 -2.681503,1.54851 -0.266993,0.24161 -0.285299,0.48361 -0.285299,3.77099 0,4.38638 -0.162244,4.10205 2.340769,4.10205 1.451716,0 1.804578,-0.0441 2.061659,-0.25781 z m 3.695827,-7.85837 c -0.808011,-0.46876 -1.237453,-1.20539 -1.237453,-2.12264 0,-2.44483 3.058506,-3.35485 4.542783,-1.35165 0.235511,0.31786 0.308178,0.6332 0.308178,1.33733 0,0.7884 -0.06127,1.00174 -0.424542,1.47802 -0.740522,0.97087 -2.149454,1.262 -3.188966,0.65894 z m -10.276852,-12.53457 c 0.919346,-0.50823 1.482631,-1.39735 1.559625,-2.46175 0.07641,-1.05663 -0.146299,-1.78614 -0.758044,-2.48288 -1.373036,-1.5638 -3.898298,-1.41109 -5.059708,0.30601 -0.899793,1.33027 -0.785304,2.82376 0.308151,4.01987 0.332293,0.3635 0.869335,0.75782 1.19343,0.87627 0.782593,0.28602 1.974806,0.17463 2.756546,-0.25752 z m -2.38825,-1.2557 c -0.742124,-0.3812 -1.124373,-1.21452 -0.900253,-1.96255 0.604976,-2.01924 3.404656,-1.59657 3.404656,0.51399 0,0.38783 -0.125157,0.66064 -0.478784,1.04366 -0.595561,0.64502 -1.288493,0.78352 -2.025619,0.4049 z"
         id="path167" />
    </g>
    <g
       id="g15806"
       transform="translate(19.810105)"
       style="fill:#ffffff;fill-opacity:1"
       inkscape:export-filename="/home/sedelpeuch/g10682.png"
       inkscape:export-xdpi="96"
       inkscape:export-ydpi="96">
      <g
         id="g11023"
         transform="translate(-78.865877)"
         style="fill:#ffffff;fill-opacity:1">
        <path
           d="m 142.17781,-207.97516 c 0.26854,0 0.48613,-0.21759 0.48613,-0.48613 v -2.7722 c 0,-0.51821 -0.42163,-0.93984 -0.93984,-0.93984 h -2.79295 c -0.51821,0 -0.93984,0.42163 -0.93984,0.93984 v 1.66131 c -0.40653,-0.30587 -0.91158,-0.48748 -1.45837,-0.48748 h -6.5337 v -1.62022 h 3.9411 c 1.34028,0 2.43062,-1.09034 2.43062,-2.43062 v -0.58335 c 1.35344,0.0216 2.59267,-1.02371 2.59267,-2.43062 v -0.45372 c 0.0324,-1.56117 -1.24189,-2.41085 -2.59267,-2.43061 v -0.58335 c 0,-1.34028 -1.09034,-2.43062 -2.43062,-2.43062 h -4.14825 c 0.0353,-1.27274 -0.83523,-2.41455 -2.13344,-2.57361 v -0.35954 c 0,-0.26853 -0.21759,-0.48612 -0.48612,-0.48612 -0.26854,0 -0.48613,0.21759 -0.48613,0.48612 v 0.35124 c -1.33431,0.12108 -2.24323,1.28097 -2.20927,2.58191 h -4.14826 c -1.34027,0 -2.43062,1.09034 -2.43062,2.43062 v 0.58335 c -1.35343,-0.0216 -2.59266,1.02371 -2.59266,2.43061 v 0.45372 c 0,1.44126 1.24189,2.41085 2.59266,2.43062 v 0.58335 c 0,1.34028 1.09035,2.43062 2.43062,2.43062 h 3.94111 v 1.62022 h -5.8856 c -0.80049,0 -1.52027,0.0463 -2.10654,0.48748 v -1.66131 c 0,-0.51821 -0.42163,-0.93984 -0.93984,-0.93984 h -2.79294 c -0.51821,0 -0.93984,0.42163 -0.93984,0.93984 v 2.77227 c 0,0.26853 0.21759,0.48612 0.48612,0.48612 0.26854,0 0.48612,-0.21759 0.48612,-0.48612 v -2.73986 h 2.72813 v 7.50186 h -2.72813 v -2.64386 c 0,-0.26854 -0.21758,-0.48613 -0.48612,-0.48613 -0.26853,0 -0.48612,0.21759 -0.48612,0.48613 v 2.67627 c 0,0.51821 0.42163,0.93984 0.93984,0.93984 h 2.79294 c 0.51821,0 0.93984,-0.42163 0.93984,-0.93984 v -1.56532 c 0.45527,0.34256 1.05567,0.49481 1.62041,0.48749 v 2.72249 c -1.35343,-0.0217 -2.59266,1.02371 -2.59266,2.43062 v 3.88899 c 0,1.34027 1.09035,2.43062 2.43062,2.43062 h 5.0754 c 1.34027,0 2.43062,-1.09035 2.43062,-2.43062 v -2.73357 h 3.78483 v 2.7335 c 0,1.34028 1.09034,2.43062 2.43062,2.43062 h 5.07539 c 1.34028,0 2.43062,-1.09034 2.43062,-2.43062 v -3.88899 c 0,-1.62599 -1.24188,-2.41085 -2.59266,-2.43062 v -2.72249 c 0.56475,0.007 1.16514,-0.14486 1.62041,-0.48748 v 1.56532 c 0,0.51821 0.42163,0.93984 0.93984,0.93984 h 2.79295 c 0.5182,0 0.93984,-0.42163 0.93984,-0.93984 v -2.67628 c 0,-0.26853 -0.21759,-0.48612 -0.48613,-0.48612 -0.26853,0 -0.48612,0.21759 -0.48612,0.48612 v 2.64387 h -2.72813 v -7.5018 h 2.72813 v 2.73986 c -1.3e-4,0.26847 0.21752,0.48606 0.48599,0.48606 z m -4.1865,-9.60303 v 0.45372 c 0,0.92778 -0.61575,1.45837 -1.62041,1.45837 v -3.37046 c 0.92908,-0.0301 1.62741,0.675 1.62041,1.45837 z m -11.08362,-7.06474 h 0.45371 c 0.92772,0 1.45837,0.56669 1.45837,1.62016 h -3.37046 c -0.0175,-0.91301 0.45372,-1.62826 1.45838,-1.62016 z m -10.62991,7.51846 v -0.45372 c 0,-0.92778 0.65899,-1.45837 1.62041,-1.45837 v 3.37046 c -0.92902,2e-4 -1.62041,-0.69697 -1.62041,-1.45837 z m 2.59266,3.01397 v -6.48165 c 0,-0.80412 0.65425,-1.45838 1.45837,-1.45838 h 13.61147 c 0.80411,0 1.45837,0.65426 1.45837,1.45838 v 6.48165 c 0,0.80411 -0.65426,1.45837 -1.45837,1.45837 h -13.61147 c -0.80412,0 -1.45837,-0.65426 -1.45837,-1.45837 z m 6.37172,2.43062 h 3.78483 v 1.62022 h -3.78483 z m -8.96438,4.50455 v -0.45371 c 0,-0.92779 0.71298,-1.45837 1.62041,-1.45837 v 3.37046 c -0.98301,0 -1.62294,-0.59956 -1.62041,-1.45838 z m 1.45837,6.12536 h 5.07539 c 0.73651,0 1.45837,0.56695 1.45837,1.6418 h -7.99213 c 0,-0.9668 0.52196,-1.6418 1.45837,-1.6418 z m -1.45837,2.61405 h 7.99213 v 1.61503 h -7.99213 z m 6.53376,4.19169 h -5.07539 c -1.02624,0 -1.45837,-0.80217 -1.45837,-1.60441 h 7.99213 c 0,0.92902 -0.537,1.60441 -1.45837,1.60441 z m 15.17977,-2.57666 h -7.99207 v -1.61503 h 7.99214 v 1.61503 z m -1.45837,2.57666 h -5.07539 c -0.92137,0 -1.45837,-0.74021 -1.45837,-1.60441 h 7.99213 c 0,0.97225 -0.537,1.60441 -1.45837,1.60441 z m 1.45837,-5.16394 h -7.99207 c 0,-0.99921 0.5219,-1.6418 1.45837,-1.6418 h 5.0754 c 0.99383,0 1.45895,0.8209 1.4583,1.6418 z m -6.5337,-2.61405 c -1.45092,0 -2.43256,1.0639 -2.43062,2.61386 h -3.78483 c 0.0305,-1.36095 -1.01418,-2.61386 -2.43062,-2.61386 h -3.9411 v -7.06519 h 16.52821 v 7.06519 z m 4.91329,-3.69473 v -3.37046 c 0.99383,0 1.62041,0.53058 1.62041,1.45837 v 0.45371 c 0,0.85882 -0.61575,1.37735 -1.62041,1.45838 z"
           id="path10967"
           style="fill:#ffffff;fill-opacity:1;stroke-width:0.0648165" />
        <path
           d="m 130.69945,-207.36265 h -7.12981 c -0.98282,0 -1.78246,0.79965 -1.78246,1.78246 0,1.0893 0.66975,1.78245 1.78246,1.78245 h 2.50515 c 0.26854,0 0.48613,-0.21759 0.48613,-0.48612 0,-0.26854 -0.21759,-0.48613 -0.48613,-0.48613 h -2.50515 c -0.49358,-0.0466 -0.76361,-0.31662 -0.81021,-0.8102 0,-0.44678 0.36342,-0.81021 0.81021,-0.81021 h 7.12981 c 0.44678,0 0.81021,0.36343 0.81021,0.81021 0,0.44678 -0.36343,0.8102 -0.81021,0.8102 h -2.5058 c -0.26854,0 -0.48613,0.21759 -0.48613,0.48613 0,0.26853 0.21759,0.48612 0.48613,0.48612 h 2.5058 c 0.98282,0 1.78246,-0.79964 1.78246,-1.78245 0,-0.98281 -0.79958,-1.78246 -1.78246,-1.78246 z"
           id="path10969"
           style="fill:#ffffff;fill-opacity:1;stroke-width:0.0648165" />
        <path
           d="m 125.20107,-218.68972 c 0,-0.98282 -0.79964,-1.78246 -1.78246,-1.78246 -0.98281,0 -1.78245,0.79964 -1.78245,1.78246 0,0.98281 0.79964,1.78245 1.78245,1.78245 0.98282,0 1.78246,-0.79958 1.78246,-1.78245 z m -1.78246,0.8102 c -0.44678,0 -0.8102,-0.36342 -0.8102,-0.8102 0,-0.44678 0.36342,-0.81021 0.8102,-0.81021 0.44678,0 0.81021,0.36343 0.81021,0.81021 0,0.44678 -0.36343,0.8102 -0.81021,0.8102 z"
           id="path10971"
           style="fill:#ffffff;fill-opacity:1;stroke-width:0.0648165" />
        <path
           d="m 130.60223,-216.90727 c 0.98281,0 1.78245,-0.79964 1.78245,-1.78245 0,-0.98282 -0.79964,-1.78246 -1.78245,-1.78246 -0.98281,0 -1.78246,0.79964 -1.78246,1.78246 0,0.98281 0.79965,1.78245 1.78246,1.78245 z m 0,-2.59266 c 0.44678,0 0.81021,0.36343 0.81021,0.81021 0,0.44678 -0.36343,0.8102 -0.81021,0.8102 -0.44678,0 -0.81021,-0.36342 -0.81021,-0.8102 0,-0.44678 0.36349,-0.81021 0.81021,-0.81021 z"
           id="path10973"
           style="fill:#ffffff;fill-opacity:1;stroke-width:0.0648165" />
        <path
           d="m 129.3059,-214.36977 c 0.26853,0 0.48612,-0.21759 0.48612,-0.48612 0,-0.26854 -0.21759,-0.48612 -0.48612,-0.48612 h -4.26687 c -0.26854,0 -0.48613,0.21758 -0.48613,0.48612 0,0.26853 0.21759,0.48612 0.48613,0.48612 z"
           id="path10975"
           style="fill:#ffffff;fill-opacity:1;stroke-width:0.0648165" />
      </g>
      <text
         xml:space="preserve"
         style="font-size:14.1111px;line-height:1.25;font-family:'RINTIK SENDU';-inkscape-font-specification:'RINTIK SENDU';letter-spacing:0px;word-spacing:0px;fill:#ffffff;fill-opacity:1;stroke-width:0.264583"
         x="78.729202"
         y="-204.92361"
         id="text11665"><tspan
           sodipodi:role="line"
           id="tspan11663"
           style="font-size:14.1111px;fill:#ffffff;fill-opacity:1;stroke-width:0.264583"
           x="78.729202"
           y="-204.92361">v2.0 rolling robot</tspan></text>
    </g>
  </g>
</svg>
