<svg id="Capa_1" enable-background="new 0 0 512 512" height="512" viewBox="0 0 512 512" width="512" xmlns="http://www.w3.org/2000/svg"><g><path d="m363.783 251.79-121.289-121.289c-7.335-7.335-11.456-17.283-11.456-27.656 0-21.601 17.511-39.112 39.112-39.112h74.545v-63.733h-74.545c-56.709 0-102.845 46.136-102.845 102.845 0 27.47 10.698 53.297 30.123 72.722l33.622 33.622c-72.312 11.909-127.477 74.698-127.477 150.383-.001 84.184 68.244 152.428 152.427 152.428s152.428-68.244 152.428-152.428c0-42.091-17.062-80.198-44.645-107.782zm-107.783 196.477c-48.985 0-88.695-39.71-88.695-88.695s39.71-88.695 88.695-88.695 88.695 39.71 88.695 88.695-39.71 88.695-88.695 88.695z"/></g></svg>