<?xml version="1.0" encoding="UTF-8" standalone="no"?>
<svg
   height="512pt"
   viewBox="-27 0 511 512"
   width="512pt"
   version="1.1"
   id="svg914"
   sodipodi:docname="clear.svg"
   inkscape:version="1.1 (ce6663b3b7, 2021-05-25)"
   xmlns:inkscape="http://www.inkscape.org/namespaces/inkscape"
   xmlns:sodipodi="http://sodipodi.sourceforge.net/DTD/sodipodi-0.dtd"
   xmlns="http://www.w3.org/2000/svg"
   xmlns:svg="http://www.w3.org/2000/svg">
  <defs
     id="defs918" />
  <sodipodi:namedview
     id="namedview916"
     pagecolor="#ffffff"
     bordercolor="#666666"
     borderopacity="1.0"
     inkscape:pageshadow="2"
     inkscape:pageopacity="0.0"
     inkscape:pagecheckerboard="0"
     inkscape:document-units="pt"
     showgrid="false"
     inkscape:zoom="0.97119141"
     inkscape:cx="27.286073"
     inkscape:cy="341.84816"
     inkscape:window-width="1392"
     inkscape:window-height="851"
     inkscape:window-x="1672"
     inkscape:window-y="27"
     inkscape:window-maximized="1"
     inkscape:current-layer="svg914" />
  <path
     d="m186.714844 0v182h-90v75c0 76.1875-18.007813 152.476562-52.082032 220.621094l-17.1875 34.378906h273.542969l10.476563-20.960938c33.910156-67.816406 52.820312-143.238281 55.03125-219.039062h.21875v-90h-90v-182zm30 30h30v152h-30zm67.917968 447.621094-2.1875 4.378906h-206.570312c31.136719-65.445312 48.507812-137.5625 50.621094-210.011719h29.988281c-1.644531 54.707031-12.296875 108.367188-31.730469 159.699219l28.054688 10.625c20.726562-54.742188 32.03125-111.972656 33.6875-170.324219h29.988281c-1.644531 54.707031-12.296875 108.367188-31.730469 159.699219l28.054688 10.621094c20.726562-54.738282 32.03125-111.96875 33.6875-170.320313h29.988281c-1.644531 54.707031-12.296875 108.367188-31.730469 159.699219l28.054688 10.621094c20.726562-54.738282 32.03125-111.972656 33.6875-170.320313h29.984375c-2.203125 71.167969-20.011719 141.960938-51.847657 205.632813zm52.082032-235.621094h-210v-30h210zm0 0"
     id="path904"
     style="fill:#ffffff;fill-opacity:1" />
  <path
     d="m381.714844 415.78125 21.214844 21.214844-21.214844 21.210937-21.210938-21.210937zm0 0"
     id="path906"
     style="fill:#ffffff;fill-opacity:1" />
  <path
     d="m336.714844 482h30v30h-30zm0 0"
     id="path908"
     style="fill:#ffffff;fill-opacity:1" />
  <path
     d="m426.714844 452h30v30h-30zm0 0"
     id="path910"
     style="fill:#ffffff;fill-opacity:1" />
  <path
     d="m21.714844 458.214844-21.214844-21.210938 21.214844-21.214844 21.210937 21.214844zm0 0"
     id="path912"
     style="fill:#ffffff;fill-opacity:1" />
</svg>
