<?xml version="1.0" encoding="iso-8859-1"?>
<!-- Generator: Adobe Illustrator 19.0.0, SVG Export Plug-In . SVG Version: 6.00 Build 0)  -->
<svg version="1.1" id="Capa_1" xmlns="http://www.w3.org/2000/svg" xmlns:xlink="http://www.w3.org/1999/xlink" x="0px" y="0px"
	 viewBox="0 0 496 496" style="enable-background:new 0 0 496 496;" xml:space="preserve">
<g>
	<g>
		<g>
			<path d="M248,0C111.033,0,0,111.033,0,248s111.033,248,248,248c136.903-0.154,247.846-111.097,248-248
				C496,111.033,384.967,0,248,0z M248,480C119.87,480,16,376.13,16,248S119.87,16,248,16c128.07,0.146,231.855,103.93,232,232
				C480,376.13,376.13,480,248,480z"/>
			<path d="M248,56C141.961,56,56,141.961,56,248s85.961,192,192,192s192-85.961,192-192C439.974,141.972,354.028,56.026,248,56z
				 M248,320c-39.764,0-72-32.236-72-72c0-39.765,32.236-72,72-72c39.765,0,72,32.235,72,72C320,287.764,287.765,320,248,320z"/>
		</g>
	</g>
</g>
<g>
</g>
<g>
</g>
<g>
</g>
<g>
</g>
<g>
</g>
<g>
</g>
<g>
</g>
<g>
</g>
<g>
</g>
<g>
</g>
<g>
</g>
<g>
</g>
<g>
</g>
<g>
</g>
<g>
</g>
</svg>
