<svg id="Capa_1" enable-background="new 0 0 512 512" height="512" viewBox="0 0 512 512" width="512" xmlns="http://www.w3.org/2000/svg"><g id="XMLID_1371_"><g id="XMLID_270_"><path id="XMLID_793_" d="m464.802 372.729-22.799-39.489h-45.599l-3.528 6.11-60.825-33.152v-14.853h-39.227v-50.345h-15v50.345h-43.649v-104.966h43.649v39.677h15v-39.677h17.691l38.673-38.594v-41.727h-15v35.504l-29.877 29.816h-11.487-73.649-11.354l-30.011-29.825v-73.053h108.19v-15h-108.189v-38.5h156.379v38.5h-33.19v15h33.189v22.5h15v-91h-186.378v147.794l38.826 38.585h17.539v104.965h-39.227v14.853l-60.825 33.152-3.528-6.11h-45.598l-22.799 39.489 19.766 34.237 7.227 105.035h46.792l-2.176-105.344 14.146-24.502 55.696-18.302h134.701l55.696 18.302 14.146 24.502-2.176 105.344h46.792l7.227-105.035zm-17.321 0-14.139 24.49h-28.278l-14.139-24.489 14.139-24.49h28.278zm-267.533-49.448v27.641l-45.509 14.955-7.813-13.533zm-101.29 24.959h28.278l7.954 13.777 6.185 10.712-14.139 24.49h-28.278l-14.139-24.49zm9.537 148.76-5.833-84.781h21.558l1.75 84.781zm106.753-190.655h24.227 73.649 24.227v42.507h-122.103zm137.104 16.936 53.323 29.063-7.54 13.06-.273.473-45.509-14.955v-27.641zm91.754 173.719h-17.476l1.751-84.781h21.558z"/><path id="XMLID_1625_" d="m85.296 365.229h15v15h-15z"/><path id="XMLID_2279_" d="m411.704 365.229h15v15h-15z"/></g></g></svg>