<?xml version="1.0" encoding="UTF-8" standalone="no"?>
<!-- Generator: Adobe Illustrator 19.0.0, SVG Export Plug-In . SVG Version: 6.00 Build 0)  -->

<svg
   version="1.1"
   id="Capa_1"
   x="0px"
   y="0px"
   viewBox="0 0 512 512"
   style="enable-background:new 0 0 512 512;"
   xml:space="preserve"
   sodipodi:docname="right-arrow.svg"
   inkscape:version="1.1 (ce6663b3b7, 2021-05-25)"
   xmlns:inkscape="http://www.inkscape.org/namespaces/inkscape"
   xmlns:sodipodi="http://sodipodi.sourceforge.net/DTD/sodipodi-0.dtd"
   xmlns="http://www.w3.org/2000/svg"
   xmlns:svg="http://www.w3.org/2000/svg"><defs
   id="defs1415" /><sodipodi:namedview
   id="namedview1413"
   pagecolor="#ffffff"
   bordercolor="#666666"
   borderopacity="1.0"
   inkscape:pageshadow="2"
   inkscape:pageopacity="0.0"
   inkscape:pagecheckerboard="0"
   showgrid="false"
   inkscape:zoom="1.2949219"
   inkscape:cx="20.464555"
   inkscape:cy="255.61388"
   inkscape:window-width="1392"
   inkscape:window-height="851"
   inkscape:window-x="1992"
   inkscape:window-y="27"
   inkscape:window-maximized="1"
   inkscape:current-layer="Capa_1" />
<g
   id="g1380"
   style="fill:#ffffff;fill-opacity:1">
	<g
   id="g1378"
   style="fill:#ffffff;fill-opacity:1">
		<path
   d="M506.134,241.843c-0.006-0.006-0.011-0.013-0.018-0.019l-104.504-104c-7.829-7.791-20.492-7.762-28.285,0.068    c-7.792,7.829-7.762,20.492,0.067,28.284L443.558,236H20c-11.046,0-20,8.954-20,20c0,11.046,8.954,20,20,20h423.557    l-70.162,69.824c-7.829,7.792-7.859,20.455-0.067,28.284c7.793,7.831,20.457,7.858,28.285,0.068l104.504-104    c0.006-0.006,0.011-0.013,0.018-0.019C513.968,262.339,513.943,249.635,506.134,241.843z"
   id="path1376"
   style="fill:#ffffff;fill-opacity:1" />
	</g>
</g>
<g
   id="g1382"
   style="fill:#ffffff;fill-opacity:1">
</g>
<g
   id="g1384"
   style="fill:#ffffff;fill-opacity:1">
</g>
<g
   id="g1386"
   style="fill:#ffffff;fill-opacity:1">
</g>
<g
   id="g1388"
   style="fill:#ffffff;fill-opacity:1">
</g>
<g
   id="g1390"
   style="fill:#ffffff;fill-opacity:1">
</g>
<g
   id="g1392"
   style="fill:#ffffff;fill-opacity:1">
</g>
<g
   id="g1394"
   style="fill:#ffffff;fill-opacity:1">
</g>
<g
   id="g1396"
   style="fill:#ffffff;fill-opacity:1">
</g>
<g
   id="g1398"
   style="fill:#ffffff;fill-opacity:1">
</g>
<g
   id="g1400"
   style="fill:#ffffff;fill-opacity:1">
</g>
<g
   id="g1402"
   style="fill:#ffffff;fill-opacity:1">
</g>
<g
   id="g1404"
   style="fill:#ffffff;fill-opacity:1">
</g>
<g
   id="g1406"
   style="fill:#ffffff;fill-opacity:1">
</g>
<g
   id="g1408"
   style="fill:#ffffff;fill-opacity:1">
</g>
<g
   id="g1410"
   style="fill:#ffffff;fill-opacity:1">
</g>
</svg>
