<?xml version="1.0" encoding="UTF-8" standalone="no"?>
<!-- Generator: Adobe Illustrator 19.0.0, SVG Export Plug-In . SVG Version: 6.00 Build 0)  -->

<svg
   version="1.1"
   id="Capa_1"
   x="0px"
   y="0px"
   viewBox="0 0 711.00003 711.0026"
   xml:space="preserve"
   sodipodi:docname="cartesian.svg"
   inkscape:version="1.1 (ce6663b3b7, 2021-05-25)"
   width="711"
   height="711.00256"
   xmlns:inkscape="http://www.inkscape.org/namespaces/inkscape"
   xmlns:sodipodi="http://sodipodi.sourceforge.net/DTD/sodipodi-0.dtd"
   xmlns="http://www.w3.org/2000/svg"
   xmlns:svg="http://www.w3.org/2000/svg"><defs
   id="defs59" /><sodipodi:namedview
   id="namedview57"
   pagecolor="#ffffff"
   bordercolor="#666666"
   borderopacity="1.0"
   inkscape:pageshadow="2"
   inkscape:pageopacity="0.0"
   inkscape:pagecheckerboard="0"
   showgrid="false"
   inkscape:zoom="0.32372985"
   inkscape:cx="98.847851"
   inkscape:cy="719.73591"
   inkscape:window-width="1600"
   inkscape:window-height="863"
   inkscape:window-x="0"
   inkscape:window-y="0"
   inkscape:window-maximized="1"
   inkscape:current-layer="Capa_1" />
<g
   id="g6"
   style="fill:#ffffff;fill-opacity:1"
   transform="matrix(1.3886748,0,0,1.3886748,-9.6715757e-4,-1.6961635e-4)">
	<g
   id="g4"
   style="fill:#ffffff;fill-opacity:1">
		<path
   d="m 506.656,300.037 c 0,0 -59.995,-29.992 -60.027,-30.009 -6.549,-3.274 -14.478,1.656 -14.478,8.947 v 20.006 H 341.11 c 0,0 0,-117.958 0,-117.965 0,0 0,-10.072 -10.005,-10.072 H 218.053 V 79.919 c 0,0 19.94,0 20.009,0 7.286,0 12.197,-7.98 8.949,-14.476 0,0 -29.923,-59.835 -30.013,-60.017 -3.623,-7.245 -14.285,-7.224 -17.897,0 0,0 -29.962,59.914 -30.014,60.017 -3.168,6.336 1.462,14.476 8.948,14.476 h 20.009 v 96.89 c 0,0 -63.905,58.476 -63.969,58.538 -1.929,1.857 -3.053,4.49 -3.061,7.192 v 124.319 l -78.609,78.596 c 0,0 -14.132,-14.129 -14.148,-14.146 -5.135,-5.135 -14.281,-2.942 -16.566,3.91 0,0 -21.182,63.534 -21.223,63.658 -2.455,7.364 5.205,15.136 12.655,12.653 0,0 63.59,-21.193 63.669,-21.219 6.853,-2.284 9.016,-11.459 3.911,-16.563 L 66.553,459.6 145.162,381.004 c 0,0 118.619,0 118.639,-0.001 2.464,-0.006 4.914,-0.96 6.734,-2.622 l 64.921,-59.394 h 96.694 c 0,0 0,19.981 0,20.006 0,7.281 7.975,12.198 14.478,8.947 0,0 59.954,-29.972 60.027,-30.009 7.13,-3.564 7.122,-14.335 0.001,-17.894 z m -480.879,186.186 9.776,-29.324 19.553,19.549 z m 168.446,-426.31 13.826,-27.647 13.826,27.647 z m 59.555,301.086 H 151.023 V 252.542 h 102.755 z m 6.118,-128.463 h -93.124 l 45.455,-41.586 h 93.124 z m 61.205,72.468 -47.314,43.286 V 246.945 l 47.314,-43.286 z M 452.16,322.807 V 295.16 l 27.652,13.824 z"
   id="path2"
   style="fill:#ffffff;fill-opacity:1" />
	</g>
</g>
<g
   id="g12"
   style="fill:#ffffff;fill-opacity:1"
   transform="matrix(1.3886748,0,0,1.3886748,-9.6715757e-4,-1.6961635e-4)">
	<g
   id="g10"
   style="fill:#ffffff;fill-opacity:1">
		<path
   d="m 307.847,9.534 c -3.032,-1.705 -7.651,-2.726 -9.655,1 l -15.308,28.908 c 0,0 -15.13,-28.763 -15.206,-28.908 -1.928,-3.666 -6.773,-2.673 -9.755,-1.001 -1.932,1.085 -3.407,2.826 -2.551,5.101 l 20.71,35.813 c 0.199,0.267 0.299,0.7 0.299,1.301 0,0 0,25.145 0,25.207 0,3.087 4.082,4.101 6.504,4.101 2.527,0 6.502,-0.901 6.502,-4.101 V 51.747 c 0,-0.466 0.133,-0.901 0.401,-1.301 0,0 20.609,-35.81 20.609,-35.811 1.249,-2.069 -0.93,-4.19 -2.55,-5.101 z"
   id="path8"
   style="fill:#ffffff;fill-opacity:1" />
	</g>
</g>
<g
   id="g18"
   style="fill:#ffffff;fill-opacity:1"
   transform="matrix(1.3886748,0,0,1.3886748,-9.6715757e-4,-1.6961635e-4)">
	<g
   id="g16"
   style="fill:#ffffff;fill-opacity:1">
		<path
   d="M 55.479,385.743 H 26.667 L 56.28,332.228 c 1.879,-3.129 2.537,-8.202 -2.401,-8.202 0,0 -37.782,0 -38.016,0 -2.937,0 -4.003,3.269 -4.003,5.702 0,2.402 1.021,5.702 4.002,5.702 h 25.311 c 0,0 -29.705,53.599 -29.714,53.615 -1.692,3.053 -2.428,8.101 2.502,8.101 0,0 41.238,0 41.517,0 5.299,0 5.625,-11.403 10e-4,-11.403 z"
   id="path14"
   style="fill:#ffffff;fill-opacity:1" />
	</g>
</g>
<g
   id="g24"
   style="fill:#ffffff;fill-opacity:1"
   transform="matrix(1.3886748,0,0,1.3886748,-9.6715757e-4,-1.6961635e-4)">
	<g
   id="g22"
   style="fill:#ffffff;fill-opacity:1">
		<path
   d="m 487.928,446.759 -17.309,-28.207 16.709,-28.109 c 1.619,-2.7 0.765,-5.392 -1.751,-7.101 -3.23,-2.193 -7.863,-2.835 -10.055,1 l -13.606,24.507 c 0,0 -13.557,-24.417 -13.607,-24.507 -2.111,-3.802 -6.743,-3.183 -9.954,-1.001 -2.519,1.712 -3.337,4.458 -1.751,7.102 l 16.708,28.108 c 0,0 -17.308,28.208 -17.308,28.209 -1.571,2.742 -0.394,5.277 2.051,6.951 2.599,1.778 7.229,3.394 9.254,-0.15 l 14.607,-25.707 c 0,0 14.6,25.522 14.705,25.706 1.982,3.464 6.6,1.965 9.206,0.151 2.386,-1.662 3.541,-4.265 2.101,-6.952 z"
   id="path20"
   style="fill:#ffffff;fill-opacity:1" />
	</g>
</g>
<g
   id="g26"
   style="fill:#ffffff;fill-opacity:1"
   transform="matrix(1.3886748,0,0,1.3886748,-9.6715757e-4,-1.6961635e-4)">
</g>
<g
   id="g28"
   style="fill:#ffffff;fill-opacity:1"
   transform="matrix(1.3886748,0,0,1.3886748,-9.6715757e-4,-1.6961635e-4)">
</g>
<g
   id="g30"
   style="fill:#ffffff;fill-opacity:1"
   transform="matrix(1.3886748,0,0,1.3886748,-9.6715757e-4,-1.6961635e-4)">
</g>
<g
   id="g32"
   style="fill:#ffffff;fill-opacity:1"
   transform="matrix(1.3886748,0,0,1.3886748,-9.6715757e-4,-1.6961635e-4)">
</g>
<g
   id="g34"
   style="fill:#ffffff;fill-opacity:1"
   transform="matrix(1.3886748,0,0,1.3886748,-9.6715757e-4,-1.6961635e-4)">
</g>
<g
   id="g36"
   style="fill:#ffffff;fill-opacity:1"
   transform="matrix(1.3886748,0,0,1.3886748,-9.6715757e-4,-1.6961635e-4)">
</g>
<g
   id="g38"
   style="fill:#ffffff;fill-opacity:1"
   transform="matrix(1.3886748,0,0,1.3886748,-9.6715757e-4,-1.6961635e-4)">
</g>
<g
   id="g40"
   style="fill:#ffffff;fill-opacity:1"
   transform="matrix(1.3886748,0,0,1.3886748,-9.6715757e-4,-1.6961635e-4)">
</g>
<g
   id="g42"
   style="fill:#ffffff;fill-opacity:1"
   transform="matrix(1.3886748,0,0,1.3886748,-9.6715757e-4,-1.6961635e-4)">
</g>
<g
   id="g44"
   style="fill:#ffffff;fill-opacity:1"
   transform="matrix(1.3886748,0,0,1.3886748,-9.6715757e-4,-1.6961635e-4)">
</g>
<g
   id="g46"
   style="fill:#ffffff;fill-opacity:1"
   transform="matrix(1.3886748,0,0,1.3886748,-9.6715757e-4,-1.6961635e-4)">
</g>
<g
   id="g48"
   style="fill:#ffffff;fill-opacity:1"
   transform="matrix(1.3886748,0,0,1.3886748,-9.6715757e-4,-1.6961635e-4)">
</g>
<g
   id="g50"
   style="fill:#ffffff;fill-opacity:1"
   transform="matrix(1.3886748,0,0,1.3886748,-9.6715757e-4,-1.6961635e-4)">
</g>
<g
   id="g52"
   style="fill:#ffffff;fill-opacity:1"
   transform="matrix(1.3886748,0,0,1.3886748,-9.6715757e-4,-1.6961635e-4)">
</g>
<g
   id="g54"
   style="fill:#ffffff;fill-opacity:1"
   transform="matrix(1.3886748,0,0,1.3886748,-9.6715757e-4,-1.6961635e-4)">
</g>
</svg>
