<?xml version="1.0" encoding="UTF-8" standalone="no"?>
<svg
   height="711pt"
   viewBox="0 0 711 711"
   width="711pt"
   version="1.1"
   id="svg6"
   sodipodi:docname="clock.svg"
   inkscape:version="1.1 (ce6663b3b7, 2021-05-25)"
   xmlns:inkscape="http://www.inkscape.org/namespaces/inkscape"
   xmlns:sodipodi="http://sodipodi.sourceforge.net/DTD/sodipodi-0.dtd"
   xmlns="http://www.w3.org/2000/svg"
   xmlns:svg="http://www.w3.org/2000/svg">
  <defs
     id="defs10" />
  <sodipodi:namedview
     id="namedview8"
     pagecolor="#ffffff"
     bordercolor="#666666"
     borderopacity="1.0"
     inkscape:pageshadow="2"
     inkscape:pageopacity="0.0"
     inkscape:pagecheckerboard="0"
     inkscape:document-units="pt"
     showgrid="false"
     inkscape:zoom="0.080932619"
     inkscape:cx="271.83107"
     inkscape:cy="1606.2745"
     inkscape:window-width="1392"
     inkscape:window-height="851"
     inkscape:window-x="1672"
     inkscape:window-y="27"
     inkscape:window-maximized="1"
     inkscape:current-layer="svg6" />
  <path
     d="m 636.18529,187.08014 c -14.72572,7.12419 -20.88793,24.84419 -13.76374,39.56267 19.46308,40.2064 29.32844,83.54452 29.32844,128.85719 0,163.34979 -132.9002,296.24999 -296.24999,296.24999 C 192.15021,651.74999 59.250001,518.84979 59.250001,355.5 59.250001,192.15021 192.15021,59.250001 355.5,59.250001 c 67.69052,0 131.28013,22.103027 183.91221,63.915069 12.76569,10.19083 31.43318,8.05719 41.62401,-4.75186 10.19085,-12.80182 8.05722,-31.447632 -4.75909,-41.623995 C 513.96771,27.26715 435.55838,0 355.5,0 159.48752,0 0,159.48752 0,355.5 0,551.51247 159.48752,711 355.5,711 551.51247,711 711,551.51247 711,355.5 711,301.18268 699.13843,249.12918 675.748,200.8439 668.63828,186.08928 650.86039,179.9415 636.18529,187.08014 Z m 0,0"
     id="path2"
     style="fill:#ffffff;fill-opacity:1;stroke-width:1.85156" />
  <path
     d="m 355.5,118.5 c -16.35306,0 -29.62499,13.27194 -29.62499,29.625 V 355.5 c 0,16.35306 13.27193,29.62499 29.62499,29.62499 h 148.12501 c 16.35306,0 29.62499,-13.27193 29.62499,-29.62499 0,-16.35306 -13.27193,-29.62499 -29.62499,-29.62499 H 385.12499 V 148.125 c 0,-16.35306 -13.27193,-29.625 -29.62499,-29.625 z m 0,0"
     id="path4"
     style="fill:#ffffff;fill-opacity:1;stroke-width:1.85156" />
</svg>
