<?xml version="1.0" encoding="UTF-8" standalone="no"?>
<!-- Generator: Adobe Illustrator 19.0.0, SVG Export Plug-In . SVG Version: 6.00 Build 0)  -->

<svg
   version="1.1"
   id="Capa_1"
   x="0px"
   y="0px"
   viewBox="0 0 711.00002 711.00283"
   xml:space="preserve"
   sodipodi:docname="compass.svg"
   inkscape:version="1.1 (ce6663b3b7, 2021-05-25)"
   width="711"
   height="711.00281"
   xmlns:inkscape="http://www.inkscape.org/namespaces/inkscape"
   xmlns:sodipodi="http://sodipodi.sourceforge.net/DTD/sodipodi-0.dtd"
   xmlns="http://www.w3.org/2000/svg"
   xmlns:svg="http://www.w3.org/2000/svg"><defs
   id="defs41" /><sodipodi:namedview
   id="namedview39"
   pagecolor="#ffffff"
   bordercolor="#666666"
   borderopacity="1.0"
   inkscape:pageshadow="2"
   inkscape:pageopacity="0.0"
   inkscape:pagecheckerboard="0"
   showgrid="false"
   inkscape:zoom="1.294927"
   inkscape:cx="89.580339"
   inkscape:cy="256.38511"
   inkscape:window-width="1600"
   inkscape:window-height="863"
   inkscape:window-x="0"
   inkscape:window-y="0"
   inkscape:window-maximized="1"
   inkscape:current-layer="Capa_1" />
<g
   id="g6"
   style="fill:#ffffff;fill-opacity:1"
   transform="matrix(1.3886845,0,0,1.3886845,-0.00255963,-8.8704261e-4)">
	<g
   id="g4"
   style="fill:#ffffff;fill-opacity:1">
		<path
   d="m 505.743,6.249 c -6.08,-6.101 -15.211,-7.893 -23.168,-4.672 l -469.333,192 c -8.768,3.605 -14.123,12.544 -13.12,21.973 0.981,9.429 8.064,17.067 17.387,18.773 l 220.139,40.021 40.043,220.139 c 1.685,9.323 9.323,16.405 18.752,17.408 0.747,0.064 1.493,0.107 2.219,0.107 8.576,0 16.448,-5.184 19.755,-13.269 l 192,-469.333 c 3.241,-7.937 1.406,-17.067 -4.674,-23.147 z"
   id="path2"
   style="fill:#ffffff;fill-opacity:1" />
	</g>
</g>
<g
   id="g8"
   transform="matrix(1.3886845,0,0,1.3886845,-0.00255963,-8.8704261e-4)">
</g>
<g
   id="g10"
   transform="matrix(1.3886845,0,0,1.3886845,-0.00255963,-8.8704261e-4)">
</g>
<g
   id="g12"
   transform="matrix(1.3886845,0,0,1.3886845,-0.00255963,-8.8704261e-4)">
</g>
<g
   id="g14"
   transform="matrix(1.3886845,0,0,1.3886845,-0.00255963,-8.8704261e-4)">
</g>
<g
   id="g16"
   transform="matrix(1.3886845,0,0,1.3886845,-0.00255963,-8.8704261e-4)">
</g>
<g
   id="g18"
   transform="matrix(1.3886845,0,0,1.3886845,-0.00255963,-8.8704261e-4)">
</g>
<g
   id="g20"
   transform="matrix(1.3886845,0,0,1.3886845,-0.00255963,-8.8704261e-4)">
</g>
<g
   id="g22"
   transform="matrix(1.3886845,0,0,1.3886845,-0.00255963,-8.8704261e-4)">
</g>
<g
   id="g24"
   transform="matrix(1.3886845,0,0,1.3886845,-0.00255963,-8.8704261e-4)">
</g>
<g
   id="g26"
   transform="matrix(1.3886845,0,0,1.3886845,-0.00255963,-8.8704261e-4)">
</g>
<g
   id="g28"
   transform="matrix(1.3886845,0,0,1.3886845,-0.00255963,-8.8704261e-4)">
</g>
<g
   id="g30"
   transform="matrix(1.3886845,0,0,1.3886845,-0.00255963,-8.8704261e-4)">
</g>
<g
   id="g32"
   transform="matrix(1.3886845,0,0,1.3886845,-0.00255963,-8.8704261e-4)">
</g>
<g
   id="g34"
   transform="matrix(1.3886845,0,0,1.3886845,-0.00255963,-8.8704261e-4)">
</g>
<g
   id="g36"
   transform="matrix(1.3886845,0,0,1.3886845,-0.00255963,-8.8704261e-4)">
</g>
</svg>
