<?xml version="1.0" encoding="UTF-8" standalone="no"?>
<!-- Generator: Adobe Illustrator 19.0.0, SVG Export Plug-In . SVG Version: 6.00 Build 0)  -->

<svg
   version="1.1"
   id="Layer_1"
   x="0px"
   y="0px"
   viewBox="0 0 710.99998 568.80559"
   xml:space="preserve"
   sodipodi:docname="inverter.svg"
   inkscape:version="1.1 (ce6663b3b7, 2021-05-25)"
   width="711"
   height="568.8056"
   xmlns:inkscape="http://www.inkscape.org/namespaces/inkscape"
   xmlns:sodipodi="http://sodipodi.sourceforge.net/DTD/sodipodi-0.dtd"
   xmlns="http://www.w3.org/2000/svg"
   xmlns:svg="http://www.w3.org/2000/svg"><defs
   id="defs59" /><sodipodi:namedview
   id="namedview57"
   pagecolor="#ffffff"
   bordercolor="#666666"
   borderopacity="1.0"
   inkscape:pageshadow="2"
   inkscape:pageopacity="0.0"
   inkscape:pagecheckerboard="0"
   showgrid="false"
   inkscape:zoom="0.3237292"
   inkscape:cx="-315.07816"
   inkscape:cy="290.36615"
   inkscape:window-width="1600"
   inkscape:window-height="863"
   inkscape:window-x="0"
   inkscape:window-y="0"
   inkscape:window-maximized="1"
   inkscape:current-layer="Layer_1" />
<g
   id="g6"
   style="fill:#ffffff;fill-opacity:1"
   transform="matrix(1.3886658,0,0,1.3886658,5.0634407e-8,-71.097129)">
	<g
   id="g4"
   style="fill:#ffffff;fill-opacity:1">
		<path
   d="M 362.668,128.004 H 26.608 c -12.382,0 -23.757,8.346 -26.112,20.497 -3.174,16.341 9.318,30.703 25.105,30.703 h 337.067 c 2.355,0 4.267,-1.911 4.267,-4.267 V 132.27 c 0,-2.354 -1.912,-4.266 -4.267,-4.266 z"
   id="path2"
   style="fill:#ffffff;fill-opacity:1" />
	</g>
</g>
<g
   id="g12"
   style="fill:#ffffff;fill-opacity:1"
   transform="matrix(1.3886658,0,0,1.3886658,5.0634407e-8,-71.097129)">
	<g
   id="g10"
   style="fill:#ffffff;fill-opacity:1">
		<path
   d="M 508.98,147.085 398.047,53.218 c -2.534,-2.142 -6.084,-2.628 -9.105,-1.229 -3.012,1.408 -4.941,4.42 -4.941,7.748 V 247.47 c 0,3.328 1.929,6.34 4.941,7.74 1.152,0.538 2.372,0.794 3.593,0.794 1.98,0 3.942,-0.691 5.513,-2.014 l 110.933,-93.867 c 1.92,-1.63 3.021,-4.011 3.021,-6.519 0,-2.508 -1.102,-4.889 -3.022,-6.519 z"
   id="path8"
   style="fill:#ffffff;fill-opacity:1" />
	</g>
</g>
<g
   id="g18"
   style="fill:#ffffff;fill-opacity:1"
   transform="matrix(1.3886658,0,0,1.3886658,5.0634407e-8,-71.097129)">
	<g
   id="g16"
   style="fill:#ffffff;fill-opacity:1">
		<path
   d="m 123.06,256.798 c -3.021,-1.399 -6.571,-0.913 -9.105,1.229 L 3.022,351.893 c -1.92,1.621 -3.021,4.002 -3.021,6.511 0,2.509 1.101,4.89 3.021,6.519 l 110.933,93.867 c 1.57,1.323 3.533,2.014 5.513,2.014 1.22,0 2.441,-0.256 3.593,-0.794 3.012,-1.399 4.941,-4.412 4.941,-7.74 V 264.538 c -0.001,-3.328 -1.929,-6.341 -4.942,-7.74 z"
   id="path14"
   style="fill:#ffffff;fill-opacity:1" />
	</g>
</g>
<g
   id="g24"
   style="fill:#ffffff;fill-opacity:1"
   transform="matrix(1.3886658,0,0,1.3886658,5.0634407e-8,-71.097129)">
	<g
   id="g22"
   style="fill:#ffffff;fill-opacity:1">
		<path
   d="m 511.506,353.301 c -2.364,-12.151 -13.739,-20.497 -26.112,-20.497 h -336.06 c -2.355,0 -4.267,1.911 -4.267,4.267 v 42.667 c 0,2.355 1.911,4.267 4.267,4.267 h 337.067 c 15.787,-10e-4 28.28,-14.362 25.105,-30.704 z"
   id="path20"
   style="fill:#ffffff;fill-opacity:1" />
	</g>
</g>
<g
   id="g26"
   style="fill:#ffffff;fill-opacity:1"
   transform="matrix(1.3886658,0,0,1.3886658,5.0634407e-8,-71.097129)">
</g>
<g
   id="g28"
   style="fill:#ffffff;fill-opacity:1"
   transform="matrix(1.3886658,0,0,1.3886658,5.0634407e-8,-71.097129)">
</g>
<g
   id="g30"
   style="fill:#ffffff;fill-opacity:1"
   transform="matrix(1.3886658,0,0,1.3886658,5.0634407e-8,-71.097129)">
</g>
<g
   id="g32"
   style="fill:#ffffff;fill-opacity:1"
   transform="matrix(1.3886658,0,0,1.3886658,5.0634407e-8,-71.097129)">
</g>
<g
   id="g34"
   style="fill:#ffffff;fill-opacity:1"
   transform="matrix(1.3886658,0,0,1.3886658,5.0634407e-8,-71.097129)">
</g>
<g
   id="g36"
   style="fill:#ffffff;fill-opacity:1"
   transform="matrix(1.3886658,0,0,1.3886658,5.0634407e-8,-71.097129)">
</g>
<g
   id="g38"
   style="fill:#ffffff;fill-opacity:1"
   transform="matrix(1.3886658,0,0,1.3886658,5.0634407e-8,-71.097129)">
</g>
<g
   id="g40"
   style="fill:#ffffff;fill-opacity:1"
   transform="matrix(1.3886658,0,0,1.3886658,5.0634407e-8,-71.097129)">
</g>
<g
   id="g42"
   style="fill:#ffffff;fill-opacity:1"
   transform="matrix(1.3886658,0,0,1.3886658,5.0634407e-8,-71.097129)">
</g>
<g
   id="g44"
   style="fill:#ffffff;fill-opacity:1"
   transform="matrix(1.3886658,0,0,1.3886658,5.0634407e-8,-71.097129)">
</g>
<g
   id="g46"
   style="fill:#ffffff;fill-opacity:1"
   transform="matrix(1.3886658,0,0,1.3886658,5.0634407e-8,-71.097129)">
</g>
<g
   id="g48"
   style="fill:#ffffff;fill-opacity:1"
   transform="matrix(1.3886658,0,0,1.3886658,5.0634407e-8,-71.097129)">
</g>
<g
   id="g50"
   style="fill:#ffffff;fill-opacity:1"
   transform="matrix(1.3886658,0,0,1.3886658,5.0634407e-8,-71.097129)">
</g>
<g
   id="g52"
   style="fill:#ffffff;fill-opacity:1"
   transform="matrix(1.3886658,0,0,1.3886658,5.0634407e-8,-71.097129)">
</g>
<g
   id="g54"
   style="fill:#ffffff;fill-opacity:1"
   transform="matrix(1.3886658,0,0,1.3886658,5.0634407e-8,-71.097129)">
</g>
</svg>
