<?xml version="1.0" encoding="UTF-8" standalone="no"?>
<!-- Generator: Adobe Illustrator 16.0.0, SVG Export Plug-In . SVG Version: 6.00 Build 0)  -->

<svg
   version="1.1"
   id="Capa_1"
   x="0px"
   y="0px"
   width="711"
   height="1005.8035"
   viewBox="0 0 711.00002 1005.8035"
   xml:space="preserve"
   sodipodi:docname="question-mark.svg"
   inkscape:version="1.1 (ce6663b3b7, 2021-05-25)"
   xmlns:inkscape="http://www.inkscape.org/namespaces/inkscape"
   xmlns:sodipodi="http://sodipodi.sourceforge.net/DTD/sodipodi-0.dtd"
   xmlns="http://www.w3.org/2000/svg"
   xmlns:svg="http://www.w3.org/2000/svg"><defs
   id="defs1146" /><sodipodi:namedview
   id="namedview1144"
   pagecolor="#ffffff"
   bordercolor="#666666"
   borderopacity="1.0"
   inkscape:pageshadow="2"
   inkscape:pageopacity="0.0"
   inkscape:pagecheckerboard="0"
   showgrid="false"
   inkscape:zoom="0.17033193"
   inkscape:cx="-581.21809"
   inkscape:cy="998.05126"
   inkscape:window-width="1600"
   inkscape:window-height="863"
   inkscape:window-x="3064"
   inkscape:window-y="0"
   inkscape:window-maximized="1"
   inkscape:current-layer="Capa_1" />
<g
   id="g1111"
   style="fill:#ffffff;fill-opacity:1"
   transform="matrix(1.0336086,0,0,1.0336086,-147.40264,0)">
	<path
   d="m 502.29,788.199 h -47 c -33.1,0 -60,26.9 -60,60 v 64.9 c 0,33.1 26.9,60 60,60 h 47 c 33.101,0 60,-26.9 60,-60 v -64.9 c 0,-33.199 -26.899,-60 -60,-60 z"
   id="path1107"
   style="fill:#ffffff;fill-opacity:1" />
	<path
   d="m 170.89,285.8 86.7,10.8 c 27.5,3.4 53.6,-12.4 63.5,-38.3 12.5,-32.7 29.9,-58.5 52.2,-77.3 31.601,-26.6 70.9,-40 117.9,-40 48.7,0 87.5,12.8 116.3,38.3 28.8,25.6 43.1,56.2 43.1,92.1 0,25.8 -8.1,49.4 -24.3,70.8 -10.5,13.6 -42.8,42.2 -96.7,85.9 -54,43.7 -89.899,83.099 -107.899,118.099 -18.4,35.801 -24.8,75.5 -26.4,115.301 -1.399,34.1 25.8,62.5 60,62.5 h 49 c 31.2,0 57,-23.9 59.8,-54.9 2,-22.299 5.7,-39.199 11.301,-50.699 9.399,-19.701 33.699,-45.701 72.699,-78.1 C 723.59,477.8 772.79,428.4 795.891,392 c 23,-36.3 34.6,-74.8 34.6,-115.5 0,-73.5 -31.3,-138 -94,-193.4 -62.6,-55.4 -147,-83.1 -253,-83.1 -100.8,0 -182.1,27.3 -244.1,82 -52.8,46.6 -84.9,101.8 -96.2,165.5 -3.501,18.6 9.199,36 27.699,38.3 z"
   id="path1109"
   style="fill:#ffffff;fill-opacity:1" />
</g>
<g
   id="g1113"
   style="fill:#ffffff;fill-opacity:1"
   transform="matrix(1.0336086,0,0,1.0336086,-147.40264,0)">
</g>
<g
   id="g1115"
   style="fill:#ffffff;fill-opacity:1"
   transform="matrix(1.0336086,0,0,1.0336086,-147.40264,0)">
</g>
<g
   id="g1117"
   style="fill:#ffffff;fill-opacity:1"
   transform="matrix(1.0336086,0,0,1.0336086,-147.40264,0)">
</g>
<g
   id="g1119"
   style="fill:#ffffff;fill-opacity:1"
   transform="matrix(1.0336086,0,0,1.0336086,-147.40264,0)">
</g>
<g
   id="g1121"
   style="fill:#ffffff;fill-opacity:1"
   transform="matrix(1.0336086,0,0,1.0336086,-147.40264,0)">
</g>
<g
   id="g1123"
   style="fill:#ffffff;fill-opacity:1"
   transform="matrix(1.0336086,0,0,1.0336086,-147.40264,0)">
</g>
<g
   id="g1125"
   style="fill:#ffffff;fill-opacity:1"
   transform="matrix(1.0336086,0,0,1.0336086,-147.40264,0)">
</g>
<g
   id="g1127"
   style="fill:#ffffff;fill-opacity:1"
   transform="matrix(1.0336086,0,0,1.0336086,-147.40264,0)">
</g>
<g
   id="g1129"
   style="fill:#ffffff;fill-opacity:1"
   transform="matrix(1.0336086,0,0,1.0336086,-147.40264,0)">
</g>
<g
   id="g1131"
   style="fill:#ffffff;fill-opacity:1"
   transform="matrix(1.0336086,0,0,1.0336086,-147.40264,0)">
</g>
<g
   id="g1133"
   style="fill:#ffffff;fill-opacity:1"
   transform="matrix(1.0336086,0,0,1.0336086,-147.40264,0)">
</g>
<g
   id="g1135"
   style="fill:#ffffff;fill-opacity:1"
   transform="matrix(1.0336086,0,0,1.0336086,-147.40264,0)">
</g>
<g
   id="g1137"
   style="fill:#ffffff;fill-opacity:1"
   transform="matrix(1.0336086,0,0,1.0336086,-147.40264,0)">
</g>
<g
   id="g1139"
   style="fill:#ffffff;fill-opacity:1"
   transform="matrix(1.0336086,0,0,1.0336086,-147.40264,0)">
</g>
<g
   id="g1141"
   style="fill:#ffffff;fill-opacity:1"
   transform="matrix(1.0336086,0,0,1.0336086,-147.40264,0)">
</g>
</svg>
