<?xml version="1.0" encoding="UTF-8" standalone="no"?>
<!-- Created with Inkscape (http://www.inkscape.org/) -->

<svg
   width="89.518173mm"
   height="89.800247mm"
   viewBox="0 0 89.518173 89.800247"
   version="1.1"
   id="svg8"
   inkscape:version="1.1 (ce6663b3b7, 2021-05-25)"
   sodipodi:docname="logo.svg"
   xmlns:inkscape="http://www.inkscape.org/namespaces/inkscape"
   xmlns:sodipodi="http://sodipodi.sourceforge.net/DTD/sodipodi-0.dtd"
   xmlns="http://www.w3.org/2000/svg"
   xmlns:svg="http://www.w3.org/2000/svg"
   xmlns:rdf="http://www.w3.org/1999/02/22-rdf-syntax-ns#"
   xmlns:cc="http://creativecommons.org/ns#"
   xmlns:dc="http://purl.org/dc/elements/1.1/">
  <defs
     id="defs2" />
  <sodipodi:namedview
     id="base"
     pagecolor="#ffffff"
     bordercolor="#666666"
     borderopacity="1.0"
     inkscape:pageopacity="0.0"
     inkscape:pageshadow="2"
     inkscape:zoom="0.98994948"
     inkscape:cx="59.093925"
     inkscape:cy="126.26907"
     inkscape:document-units="mm"
     inkscape:current-layer="layer1"
     showgrid="false"
     inkscape:window-width="1392"
     inkscape:window-height="851"
     inkscape:window-x="1608"
     inkscape:window-y="27"
     inkscape:window-maximized="1"
     inkscape:pagecheckerboard="0"
     fit-margin-top="0"
     fit-margin-left="0"
     fit-margin-right="0"
     fit-margin-bottom="0" />
  <metadata
     id="metadata5">
    <rdf:RDF>
      <cc:Work
         rdf:about="">
        <dc:format>image/svg+xml</dc:format>
        <dc:type
           rdf:resource="http://purl.org/dc/dcmitype/StillImage" />
      </cc:Work>
    </rdf:RDF>
  </metadata>
  <g
     inkscape:label="Calque 1"
     inkscape:groupmode="layer"
     id="layer1"
     transform="translate(-420.61409,198.59147)">
    <path
       style="fill:#ffffff;fill-opacity:1;stroke:none;stroke-width:0.264583;stroke-opacity:1"
       d="m 460.14783,-109.03321 c -6.23791,-0.70632 -12.98655,-3.03699 -18.25448,-6.30427 -8.99258,-5.57737 -16.11821,-14.55303 -19.30339,-24.31515 -1.69816,-5.20462 -1.98162,-7.2227 -1.97578,-14.0664 0.006,-6.939 0.27333,-8.74943 2.1062,-14.2596 4.9645,-14.92489 17.68272,-26.27089 33.20019,-29.61809 15.00247,-3.23611 30.68494,1.5393 41.50198,12.63761 13.40965,13.75833 16.54035,34.46123 7.80298,51.60003 -2.29156,4.49499 -4.67203,7.76146 -8.30061,11.39004 -5.87062,5.87062 -12.85358,9.85306 -20.85446,11.89349 -4.61631,1.17728 -11.0255,1.59684 -15.92263,1.04234 z m 4.99636,-18.42593 c 0.5162,-0.42905 0.56203,-0.76218 0.62463,-4.54022 l 0.0675,-4.07719 2.61476,-1.42657 c 2.35905,-1.28706 2.69281,-1.39935 3.41292,-1.14832 1.01479,0.35376 3.38204,0.35927 4.30065,0.01 0.61212,-0.23272 1.05192,-0.0839 3.32311,1.12448 l 2.61762,1.39271 10e-4,4.03489 c 0.002,5.2742 -0.15187,5.09323 4.32602,5.09323 2.84098,0 3.32392,-0.0637 3.70888,-0.48906 0.39303,-0.43429 0.43466,-1.22684 0.37173,-7.0776 l -0.0708,-6.58856 -4.58713,-2.51354 -4.58713,-2.51354 -0.62608,-1.56374 c -1.21268,-3.02887 -3.62905,-4.74293 -6.69563,-4.74956 l -1.6793,-0.004 -5.65946,-6.46639 c -5.1168,-5.84634 -5.64077,-6.53293 -5.46445,-7.16029 0.10726,-0.38164 0.19453,-1.88452 0.19394,-3.33973 -0.001,-2.29284 -0.0924,-2.83997 -0.68531,-4.10104 -0.81481,-1.7329 -1.97641,-3.175 -2.55744,-3.175 -1.00048,0 -1.88255,1.77879 -1.11677,2.25207 0.72503,0.44809 1.66979,2.97885 1.78868,4.79139 0.23767,3.62343 -1.40731,6.49991 -4.62173,8.08175 -1.56467,0.76999 -2.04524,0.88021 -3.78169,0.86734 -2.39366,-0.0177 -3.90652,-0.61537 -5.66794,-2.23899 -3.48278,-3.21031 -3.5881,-8.73573 -0.23051,-12.09331 1.25171,-1.25172 3.14642,-2.21318 4.70838,-2.38923 0.78618,-0.0886 1.36157,-0.3522 1.82521,-0.83613 0.64373,-0.67191 0.65579,-0.73711 0.24489,-1.32375 -0.39669,-0.56636 -0.57223,-0.60579 -2.13735,-0.48016 -1.23228,0.0989 -2.2432,0.40278 -3.6452,1.09569 -3.23421,1.59843 -5.33006,4.42169 -6.01447,8.1019 -0.83496,4.48979 1.80287,9.67602 5.95161,11.70143 1.98511,0.96914 4.96025,1.43022 6.83573,1.05939 1.20128,-0.23752 1.50002,-0.21378 1.96889,0.15645 2.37397,1.87456 12.82142,11.29403 12.75329,11.49843 -0.0475,0.14233 -2.02288,1.30163 -4.38985,2.57622 -2.36698,1.27459 -4.53417,2.5261 -4.81599,2.78114 -0.47952,0.43396 -0.5124,0.86856 -0.5124,6.77271 0,7.87797 -0.29139,7.36732 4.20403,7.36732 2.60729,0 3.24103,-0.0793 3.70275,-0.46302 z m 6.63772,-14.11368 c -1.45119,-0.84188 -2.22247,-2.16488 -2.22247,-3.81227 0,-4.39094 5.49309,-6.02534 8.15886,-2.42756 0.42298,0.57086 0.55349,1.1372 0.55349,2.40184 0,1.41598 -0.11006,1.79913 -0.76248,2.65451 -1.32998,1.74369 -3.86043,2.26657 -5.7274,1.18348 z m -18.45727,-22.51216 c 1.65115,-0.91278 2.66281,-2.50962 2.80109,-4.42131 0.13726,-1.89771 -0.26275,-3.20791 -1.36145,-4.45926 -2.46598,-2.8086 -7.00136,-2.53431 -9.08726,0.54959 -1.61603,2.38919 -1.41041,5.07149 0.55344,7.21973 0.5968,0.65283 1.56133,1.36102 2.14341,1.57375 1.40554,0.5137 3.54676,0.31366 4.95077,-0.4625 z m -4.28931,-2.25525 c -1.33286,-0.68465 -2.01938,-2.18125 -1.61686,-3.52473 1.08654,-3.62656 6.11478,-2.86746 6.11478,0.92313 0,0.69654 -0.22478,1.18652 -0.8599,1.87439 -1.06963,1.15849 -2.31414,1.40725 -3.63802,0.72721 z"
       id="path167" />
  </g>
</svg>
