<?xml version="1.0" encoding="iso-8859-1"?>
<!-- Generator: Adobe Illustrator 19.0.0, SVG Export Plug-In . SVG Version: 6.00 Build 0)  -->
<svg version="1.1" id="Capa_1" xmlns="http://www.w3.org/2000/svg" xmlns:xlink="http://www.w3.org/1999/xlink" x="0px" y="0px"
	 viewBox="0 0 512.001 512.001" style="enable-background:new 0 0 512.001 512.001;" xml:space="preserve">
<g>
	<g>
		<path d="M506.656,300.037c0,0-59.995-29.992-60.027-30.009c-6.549-3.274-14.478,1.656-14.478,8.947v20.006H341.11
			c0,0,0-117.958,0-117.965c0,0,0-10.072-10.005-10.072H218.053V79.919c0,0,19.94,0,20.009,0c7.286,0,12.197-7.98,8.949-14.476
			c0,0-29.923-59.835-30.013-60.017c-3.623-7.245-14.285-7.224-17.897,0c0,0-29.962,59.914-30.014,60.017
			c-3.168,6.336,1.462,14.476,8.948,14.476h20.009v96.89c0,0-63.905,58.476-63.969,58.538c-1.929,1.857-3.053,4.49-3.061,7.192
			v124.319l-78.609,78.596c0,0-14.132-14.129-14.148-14.146c-5.135-5.135-14.281-2.942-16.566,3.91c0,0-21.182,63.534-21.223,63.658
			c-2.455,7.364,5.205,15.136,12.655,12.653c0,0,63.59-21.193,63.669-21.219c6.853-2.284,9.016-11.459,3.911-16.563L66.553,459.6
			l78.609-78.596c0,0,118.619,0,118.639-0.001c2.464-0.006,4.914-0.96,6.734-2.622l64.921-59.394h96.694c0,0,0,19.981,0,20.006
			c0,7.281,7.975,12.198,14.478,8.947c0,0,59.954-29.972,60.027-30.009C513.785,314.367,513.777,303.596,506.656,300.037z
			 M25.777,486.223l9.776-29.324l19.553,19.549L25.777,486.223z M194.223,59.913l13.826-27.647l13.826,27.647H194.223z
			 M253.778,360.999H151.023V252.542h102.755V360.999z M259.896,232.536h-93.124l45.455-41.586h93.124L259.896,232.536z
			 M321.101,305.004l-47.314,43.286V246.945l47.314-43.286V305.004z M452.16,322.807V295.16l27.652,13.824L452.16,322.807z"/>
	</g>
</g>
<g>
	<g>
		<path d="M307.847,9.534c-3.032-1.705-7.651-2.726-9.655,1l-15.308,28.908c0,0-15.13-28.763-15.206-28.908
			c-1.928-3.666-6.773-2.673-9.755-1.001c-1.932,1.085-3.407,2.826-2.551,5.101l20.71,35.813c0.199,0.267,0.299,0.7,0.299,1.301
			c0,0,0,25.145,0,25.207c0,3.087,4.082,4.101,6.504,4.101c2.527,0,6.502-0.901,6.502-4.101V51.747c0-0.466,0.133-0.901,0.401-1.301
			c0,0,20.609-35.81,20.609-35.811C311.646,12.566,309.467,10.445,307.847,9.534z"/>
	</g>
</g>
<g>
	<g>
		<path d="M55.479,385.743H26.667l29.613-53.515c1.879-3.129,2.537-8.202-2.401-8.202c0,0-37.782,0-38.016,0
			c-2.937,0-4.003,3.269-4.003,5.702c0,2.402,1.021,5.702,4.002,5.702h25.311c0,0-29.705,53.599-29.714,53.615
			c-1.692,3.053-2.428,8.101,2.502,8.101c0,0,41.238,0,41.517,0C60.777,397.146,61.103,385.743,55.479,385.743z"/>
	</g>
</g>
<g>
	<g>
		<path d="M487.928,446.759l-17.309-28.207l16.709-28.109c1.619-2.7,0.765-5.392-1.751-7.101c-3.23-2.193-7.863-2.835-10.055,1
			l-13.606,24.507c0,0-13.557-24.417-13.607-24.507c-2.111-3.802-6.743-3.183-9.954-1.001c-2.519,1.712-3.337,4.458-1.751,7.102
			l16.708,28.108c0,0-17.308,28.208-17.308,28.209c-1.571,2.742-0.394,5.277,2.051,6.951c2.599,1.778,7.229,3.394,9.254-0.15
			l14.607-25.707c0,0,14.6,25.522,14.705,25.706c1.982,3.464,6.6,1.965,9.206,0.151
			C488.213,452.049,489.368,449.446,487.928,446.759z"/>
	</g>
</g>
<g>
</g>
<g>
</g>
<g>
</g>
<g>
</g>
<g>
</g>
<g>
</g>
<g>
</g>
<g>
</g>
<g>
</g>
<g>
</g>
<g>
</g>
<g>
</g>
<g>
</g>
<g>
</g>
<g>
</g>
</svg>
