<?xml version="1.0" encoding="UTF-8" standalone="no"?>
<!-- Created with Inkscape (http://www.inkscape.org/) -->

<svg
   version="1.1"
   id="svg2"
   width="261"
   height="59.999996"
   viewBox="0 0 261 59.999996"
   sodipodi:docname="deploy.svg"
   inkscape:version="1.1 (ce6663b3b7, 2021-05-25)"
   xmlns:inkscape="http://www.inkscape.org/namespaces/inkscape"
   xmlns:sodipodi="http://sodipodi.sourceforge.net/DTD/sodipodi-0.dtd"
   xmlns="http://www.w3.org/2000/svg"
   xmlns:svg="http://www.w3.org/2000/svg">
  <defs
     id="defs6" />
  <sodipodi:namedview
     id="namedview4"
     pagecolor="#ffffff"
     bordercolor="#666666"
     borderopacity="1.0"
     inkscape:pageshadow="2"
     inkscape:pageopacity="0.0"
     inkscape:pagecheckerboard="0"
     showgrid="false"
     fit-margin-top="0"
     fit-margin-left="0"
     fit-margin-right="0"
     fit-margin-bottom="0"
     inkscape:zoom="2.1848592"
     inkscape:cx="80.325544"
     inkscape:cy="58.585012"
     inkscape:window-width="1600"
     inkscape:window-height="863"
     inkscape:window-x="3384"
     inkscape:window-y="0"
     inkscape:window-maximized="1"
     inkscape:current-layer="g8" />
  <g
     inkscape:groupmode="layer"
     inkscape:label="Image"
     id="g8"
     transform="translate(-13.810495,-6.776383)">
    <g
       id="g1373"
       transform="translate(-2.8022669,-89.93772)">
      <path
         style="fill:#fdfdfd"
         d="m 74.612762,141.7141 v -5 h 10 10 v 5 5 h -10 -10 z m -34,-16 v -5 h 10 c 9.333333,0 10,0.13334 10,2 0,3.40917 2.618032,2.21878 6.597923,-3 2.097177,-2.75 4.62058,-5 5.607563,-5 1.127847,0 1.794514,-0.743 1.794514,-2 0,-1.86666 0.666667,-2 10,-2 h 10 v 5 5 h -10 c -9.333333,0 -10,-0.13333 -10,-2 0,-3.40916 -2.618032,-2.21878 -6.597923,3 -2.097177,2.75 -4.62058,5 -5.607563,5 -1.127847,0 -1.794514,0.74301 -1.794514,2 0,1.86667 -0.666667,2 -10,2 h -10 z"
         id="path861" />
      <path
         style="fill:#ecebeb"
         d="m 156.85981,131.2141 c -0.049,-5.5 0.13762,-9.4381 0.41478,-8.75135 0.38824,0.96198 0.99516,0.90459 2.64356,-0.25 4.60973,-3.22878 7.69461,-0.58506 7.69461,6.59422 0,4.34759 -0.31327,5.09275 -2.57409,6.12285 -1.97722,0.90088 -3.01753,0.89591 -4.48643,-0.0214 -2.69582,-1.68357 -2.77408,-1.62128 -3.21101,2.55572 -0.21575,2.0625 -0.43238,-0.75 -0.48142,-6.25 z m 7.53838,2.65377 c 0.70699,-0.44858 1.54515,-2.41603 1.86258,-4.37211 0.74721,-4.60453 -2.49173,-8.47085 -5.67093,-6.76939 -3.7478,2.00576 -2.57992,12.02641 1.39536,11.97242 0.62016,-0.008 1.706,-0.38233 2.41299,-0.83092 z m 29.98674,5.80687 c 4.10916,-1.6504 3.99484,-3.09599 -1.28201,-16.21064 -0.40491,-1.00633 -0.25543,-1.75 0.35175,-1.75 0.58074,0 1.83606,2.475 2.78961,5.5 0.95355,3.025 2.07855,5.5 2.5,5.5 0.42145,0 1.54645,-2.475 2.5,-5.5 0.95355,-3.025 2.10154,-5.5 2.5511,-5.5 1.08863,0 1.22211,-0.50544 -2.24285,8.49292 -3.5738,9.28102 -4.44761,10.52904 -7.31221,10.4437 -2.07466,-0.0618 -2.07107,-0.0861 0.14461,-0.97598 z m -73.77217,-13.33681 v -9.62383 h 4.54966 c 5.01362,0 9.86673,2.03677 10.82916,4.54481 1.3417,3.49641 0.58568,8.38493 -1.70938,11.05311 -1.88979,2.197 -3.40282,2.79835 -8,3.17959 l -5.66944,0.47015 z m 12,5.37617 c 2.6963,-2.6963 2.70921,-9.04819 0.0233,-11.47888 -1.08848,-0.98505 -3.67217,-1.84104 -5.75,-1.90499 l -3.7733,-0.11613 -0.29206,7.75 -0.29207,7.75 h 4.04207 c 2.70873,0 4.70179,-0.65973 6.04206,-2 z m 9.65499,2.17126 c -0.98011,-1.083 -1.65499,-3.52032 -1.65499,-5.97695 0,-3.27234 0.5055,-4.47942 2.39411,-5.71688 4.18456,-2.74183 9.60589,0.0557 9.60589,4.95683 0,1.2312 -1.17514,1.56574 -5.5,1.56574 -5.93032,0 -6.3246,0.37771 -3.9433,3.7775 1.61213,2.30163 4.86308,2.97033 5.9433,1.2225 0.33992,-0.55 1.15398,-0.98569 1.80902,-0.96819 2.12792,0.0568 -2.62448,2.96819 -4.84516,2.96819 -1.18464,0 -2.89863,-0.82293 -3.80887,-1.82874 z m 8.34501,-8.13607 c 0,-2.70717 -3.39958,-4.42689 -6,-3.03519 -1.1,0.5887 -2,1.95454 -2,3.03519 0,1.62562 0.69054,1.96481 4,1.96481 3.30946,0 4,-0.33919 4,-1.96481 z m 22.36996,-0.0352 c 0,-5.775 0.16528,-8.1375 0.36728,-5.25 0.202,2.8875 0.202,7.6125 0,10.5 -0.202,2.8875 -0.36728,0.525 -0.36728,-5.25 z m 6.63004,8 c -3.74551,-3.74551 -2.19175,-11.23309 2.57951,-12.4306 4.41552,-1.10822 7.42049,1.64494 7.42049,6.79867 0,6.95882 -5.54833,10.0836 -10,5.63193 z m 7.4433,-1.2225 c 0.85618,-1.22238 1.5567,-3.14725 1.5567,-4.2775 0,-2.60677 -2.68649,-6.5 -4.48528,-6.5 -2.31703,0 -4.51472,2.98747 -4.51472,6.13717 0,6.43267 4.30713,9.11783 7.4433,4.64033 z m 62.75287,-6.0751 c -1.75789,-1.81369 -3.19617,-3.61369 -3.19617,-4 0,-0.38632 3.15,-0.7024 7,-0.7024 3.85,0 7,0.36173 7,0.80384 0,0.85948 -6.25327,7.19616 -7.10144,7.19616 -0.27842,0 -1.9445,-1.48392 -3.70239,-3.2976 z"
         id="path859" />
      <path
         style="fill:#bc7d83"
         d="m 60.612762,127.33068 c 0,-0.21088 1.111382,-0.59588 2.469738,-0.85554 1.358355,-0.25967 2.231798,-0.0871 1.940983,0.38342 -0.51208,0.82856 -4.410721,1.24587 -4.410721,0.47212 z m 9.817958,-12.83454 c 0.533281,-0.53328 1.804901,-0.79254 2.825822,-0.57614 1.374818,0.29141 1.123356,0.54287 -0.969603,0.9696 -1.824821,0.37206 -2.482356,0.23268 -1.856219,-0.39346 z"
         id="path853" />
      <path
         style="fill:#8b0f1b"
         d="M 16.612762,126.7141 V 96.714103 h 130.499998 130.5 v 29.999997 30 h -130.5 -130.499998 z m 78,15 v -5 h -10 -10 v 5 5 h 10 10 z m 63.999998,-3.53518 c 0,-3.18526 0.19146,-3.43272 1.93426,-2.5 2.74787,1.47062 3.79721,1.30371 6.06574,-0.96482 2.21388,-2.21388 2.73849,-8.75161 0.96775,-12.06026 -0.84116,-1.57171 -2.04446,-1.90544 -6.5,-1.80272 l -5.46775,0.12605 v 10.36847 c 0,8.54974 0.26311,10.36846 1.5,10.36846 1.05046,0 1.5,-1.05946 1.5,-3.53518 z m 1.2,-5.66482 c -1.63677,-1.63677 -1.51077,-5.99924 0.24143,-8.35887 2.90948,-3.9181 6.60604,1.2493 5.1224,7.16059 -0.64999,2.58977 -3.36566,3.19645 -5.36383,1.19828 z m 38.3252,6.80189 c 1.35636,-2.07007 7.4748,-16.93936 7.4748,-18.16558 0,-0.23997 -0.63883,-0.43631 -1.41963,-0.43631 -0.81576,0 -2.12717,2.13018 -3.08295,5.00776 -0.91482,2.75426 -2.06358,4.76037 -2.5528,4.45802 -0.48922,-0.30236 -1.43716,-2.37769 -2.10653,-4.61185 -1.11505,-3.72169 -3.17336,-5.85199 -4.43511,-4.59024 -0.28093,0.28093 0.63848,3.3391 2.04312,6.79595 3.07751,7.57378 3.17688,9.53659 0.5539,10.94036 -2.56257,1.37145 -2.57508,3 -0.0231,3 1.08732,0 2.68403,-1.07915 3.54825,-2.39811 z m -46.58472,-5.1854 c 2.13506,-2.02893 0.4441,-2.96027 -2.50709,-1.38084 -2.87594,1.53916 -5.69505,0.46101 -6.25671,-2.39283 -0.26942,-1.36889 0.6238,-1.64282 5.35698,-1.64282 4.76886,0 5.58292,-0.25381 5.07333,-1.58178 -0.33385,-0.86999 -0.60699,-1.96285 -0.60699,-2.42858 0,-1.92914 -3.36461,-3.98964 -6.51472,-3.98964 -3.93644,0 -6.48528,2.86443 -6.48528,7.28825 0,7.2999 6.95257,10.86818 11.94048,6.12824 z m -8.71429,-8.59504 c 1.09248,-3.27745 6.77381,-3.57338 6.77381,-0.35283 0,1.09027 -1.03218,1.53138 -3.58333,1.53138 -2.30638,0 -3.44334,-0.41999 -3.19048,-1.17855 z m 45.13895,9.10597 c 2.0808,-1.63675 2.63486,-2.93446 2.63486,-6.17126 0,-5.13196 -2.22746,-7.75616 -6.58356,-7.75616 -9.65212,0 -9.46027,15.38759 0.1987,15.93662 0.61333,0.0349 2.30083,-0.86928 3.75,-2.0092 z m -6.69847,-1.59408 c -0.36667,-0.36667 -0.66667,-2.63079 -0.66667,-5.03139 0,-4.71546 1.88114,-6.49046 4.88592,-4.61025 1.99385,1.24764 2.6726,6.93041 1.05987,8.87363 -1.242,1.49651 -4.13041,1.91671 -5.27912,0.76801 z m -46.58975,-0.25641 c 3.32868,-3.32868 3.81403,-7.45333 1.42148,-12.08003 -1.59973,-3.09352 -6.23146,-4.981 -12.2484,-4.99132 l -3.25,-0.006 v 10 10 h 5.57692 c 4.83064,0 5.96808,-0.39116 8.5,-2.92307 z m -11.07692,-6.44609 v -7.63084 h 3.04545 c 4.56106,0 8.36682,4.18863 7.54397,8.3029 -0.8317,4.15848 -2.43594,5.63566 -6.90867,6.36148 l -3.68075,0.59731 z m 51,-1.13084 c 0,-8.66666 -0.2619,-10.5 -1.5,-10.5 -1.2381,0 -1.5,1.83334 -1.5,10.5 0,8.66667 0.2619,10.5 1.5,10.5 1.2381,0 1.5,-1.83333 1.5,-10.5 z m -113.999998,4 c 0,-0.825 0.867124,-1.5 1.926942,-1.5 1.129334,0 3.509396,-2.05198 5.75,-4.9574 3.826104,-4.96136 6.323058,-6.36031 6.323058,-3.5426 0,1.23334 1.777778,1.5 10,1.5 h 10 v -5 -5 h -10 c -8.222222,0 -10,0.26667 -10,1.5 0,0.825 -0.867124,1.5 -1.926942,1.5 -1.129334,0 -3.509396,2.05199 -5.75,4.95741 -3.826104,4.96135 -6.323058,6.36031 -6.323058,3.54259 0,-1.23333 -1.777778,-1.5 -10,-1.5 h -10 v 5 5 h 10 c 8.222222,0 10,-0.26666 10,-1.5 z M 257.8206,127.01116 c 2.08569,-2.03663 3.79216,-4.06163 3.79216,-4.5 0,-0.43838 -3.6,-0.79706 -8,-0.79706 -4.4,0 -8,0.31853 -8,0.70784 0,0.80707 7.14084,8.29216 7.91079,8.29216 0.27768,0 2.21136,-1.66632 4.29705,-3.70294 z"
         id="path849" />
    </g>
  </g>
</svg>
