<?xml version="1.0" encoding="UTF-8" standalone="no"?>
<!-- Generator: Adobe Illustrator 19.0.0, SVG Export Plug-In . SVG Version: 6.00 Build 0)  -->

<svg
   version="1.1"
   id="Layer_1"
   x="0px"
   y="0px"
   viewBox="0 0 512.002 512.002"
   style="enable-background:new 0 0 512.002 512.002;"
   xml:space="preserve"
   sodipodi:docname="inverter.svg"
   inkscape:version="1.1 (ce6663b3b7, 2021-05-25)"
   xmlns:inkscape="http://www.inkscape.org/namespaces/inkscape"
   xmlns:sodipodi="http://sodipodi.sourceforge.net/DTD/sodipodi-0.dtd"
   xmlns="http://www.w3.org/2000/svg"
   xmlns:svg="http://www.w3.org/2000/svg"><defs
   id="defs59" /><sodipodi:namedview
   id="namedview57"
   pagecolor="#ffffff"
   bordercolor="#666666"
   borderopacity="1.0"
   inkscape:pageshadow="2"
   inkscape:pageopacity="0.0"
   inkscape:pagecheckerboard="0"
   showgrid="false"
   inkscape:zoom="1.2949168"
   inkscape:cx="20.464636"
   inkscape:cy="256.38713"
   inkscape:window-width="1392"
   inkscape:window-height="851"
   inkscape:window-x="1992"
   inkscape:window-y="27"
   inkscape:window-maximized="1"
   inkscape:current-layer="Layer_1" />
<g
   id="g6"
   style="fill:#ffffff;fill-opacity:1">
	<g
   id="g4"
   style="fill:#ffffff;fill-opacity:1">
		<path
   d="M362.668,128.004H26.608c-12.382,0-23.757,8.346-26.112,20.497c-3.174,16.341,9.318,30.703,25.105,30.703h337.067    c2.355,0,4.267-1.911,4.267-4.267v-42.667C366.935,129.916,365.023,128.004,362.668,128.004z"
   id="path2"
   style="fill:#ffffff;fill-opacity:1" />
	</g>
</g>
<g
   id="g12"
   style="fill:#ffffff;fill-opacity:1">
	<g
   id="g10"
   style="fill:#ffffff;fill-opacity:1">
		<path
   d="M508.98,147.085L398.047,53.218c-2.534-2.142-6.084-2.628-9.105-1.229c-3.012,1.408-4.941,4.42-4.941,7.748v187.733    c0,3.328,1.929,6.34,4.941,7.74c1.152,0.538,2.372,0.794,3.593,0.794c1.98,0,3.942-0.691,5.513-2.014l110.933-93.867    c1.92-1.63,3.021-4.011,3.021-6.519S510.9,148.715,508.98,147.085z"
   id="path8"
   style="fill:#ffffff;fill-opacity:1" />
	</g>
</g>
<g
   id="g18"
   style="fill:#ffffff;fill-opacity:1">
	<g
   id="g16"
   style="fill:#ffffff;fill-opacity:1">
		<path
   d="M123.06,256.798c-3.021-1.399-6.571-0.913-9.105,1.229L3.022,351.893c-1.92,1.621-3.021,4.002-3.021,6.511    s1.101,4.89,3.021,6.519l110.933,93.867c1.57,1.323,3.533,2.014,5.513,2.014c1.22,0,2.441-0.256,3.593-0.794    c3.012-1.399,4.941-4.412,4.941-7.74V264.538C128.001,261.21,126.073,258.197,123.06,256.798z"
   id="path14"
   style="fill:#ffffff;fill-opacity:1" />
	</g>
</g>
<g
   id="g24"
   style="fill:#ffffff;fill-opacity:1">
	<g
   id="g22"
   style="fill:#ffffff;fill-opacity:1">
		<path
   d="M511.506,353.301c-2.364-12.151-13.739-20.497-26.112-20.497h-336.06c-2.355,0-4.267,1.911-4.267,4.267v42.667    c0,2.355,1.911,4.267,4.267,4.267h337.067C502.188,384.004,514.681,369.643,511.506,353.301z"
   id="path20"
   style="fill:#ffffff;fill-opacity:1" />
	</g>
</g>
<g
   id="g26"
   style="fill:#ffffff;fill-opacity:1">
</g>
<g
   id="g28"
   style="fill:#ffffff;fill-opacity:1">
</g>
<g
   id="g30"
   style="fill:#ffffff;fill-opacity:1">
</g>
<g
   id="g32"
   style="fill:#ffffff;fill-opacity:1">
</g>
<g
   id="g34"
   style="fill:#ffffff;fill-opacity:1">
</g>
<g
   id="g36"
   style="fill:#ffffff;fill-opacity:1">
</g>
<g
   id="g38"
   style="fill:#ffffff;fill-opacity:1">
</g>
<g
   id="g40"
   style="fill:#ffffff;fill-opacity:1">
</g>
<g
   id="g42"
   style="fill:#ffffff;fill-opacity:1">
</g>
<g
   id="g44"
   style="fill:#ffffff;fill-opacity:1">
</g>
<g
   id="g46"
   style="fill:#ffffff;fill-opacity:1">
</g>
<g
   id="g48"
   style="fill:#ffffff;fill-opacity:1">
</g>
<g
   id="g50"
   style="fill:#ffffff;fill-opacity:1">
</g>
<g
   id="g52"
   style="fill:#ffffff;fill-opacity:1">
</g>
<g
   id="g54"
   style="fill:#ffffff;fill-opacity:1">
</g>
</svg>
