<?xml version="1.0" encoding="UTF-8" standalone="no"?>
<svg
   fill="none"
   height="512"
   viewBox="0 0 24 24"
   width="512"
   version="1.1"
   id="svg1313"
   sodipodi:docname="replay.svg"
   inkscape:version="1.1 (ce6663b3b7, 2021-05-25)"
   xmlns:inkscape="http://www.inkscape.org/namespaces/inkscape"
   xmlns:sodipodi="http://sodipodi.sourceforge.net/DTD/sodipodi-0.dtd"
   xmlns="http://www.w3.org/2000/svg"
   xmlns:svg="http://www.w3.org/2000/svg">
  <defs
     id="defs1317" />
  <sodipodi:namedview
     id="namedview1315"
     pagecolor="#ffffff"
     bordercolor="#666666"
     borderopacity="1.0"
     inkscape:pageshadow="2"
     inkscape:pageopacity="0.0"
     inkscape:pagecheckerboard="0"
     showgrid="false"
     inkscape:zoom="1.2949219"
     inkscape:cx="20.464555"
     inkscape:cy="255.61388"
     inkscape:window-width="1392"
     inkscape:window-height="851"
     inkscape:window-x="1992"
     inkscape:window-y="27"
     inkscape:window-maximized="1"
     inkscape:current-layer="svg1313" />
  <g
     fill="rgb(0,0,0)"
     id="g1311"
     style="fill:#ffffff;fill-opacity:1">
    <path
       d="m12.4714 1.41665c-.3222-.26034-.7944-.21022-1.0547.11195-.2604.32218-.2103.7944.1119 1.05474l.6.48484h-.1286c-5.39187 0-9.75 4.41305-9.75 9.84092 0 5.4278 4.35813 9.8409 9.75 9.8409 5.3919 0 9.75-4.4131 9.75-9.8409 0-3.43286-1.7424-6.45723-4.3841-8.21773-.3447-.22971-.8103-.13651-1.04.20817s-.1365.81032.2082 1.04003c2.2383 1.49174 3.7159 4.05503 3.7159 6.96953 0 4.6137-3.7007 8.3409-8.25 8.3409-4.54926 0-8.25-3.7272-8.25-8.3409s3.70074-8.34092 8.25-8.34092h.1286l-.6.48483c-.3222.26034-.3723.73257-.1119 1.05474.2603.32217.7325.37229 1.0547.11195l2.25-1.81818c.1762-.14239.2786-.3568.2786-.58334 0-.22655-.1024-.44096-.2786-.58335z"
       id="path1307"
       style="fill:#ffffff;fill-opacity:1" />
    <path
       d="m9.67511 8.32402c.25985-.12489.56829-.08978.79339.09032l5 3.99996c.1779.1424.2815.3579.2815.5857s-.1036.4433-.2815.5856l-5 4c-.2251.1801-.53354.2153-.79339.0904s-.42511-.3877-.42511-.676v-8.00001c0-.2883.16526-.55108.42511-.67597z"
       id="path1309"
       style="fill:#ffffff;fill-opacity:1" />
  </g>
</svg>
