<?xml version="1.0" encoding="UTF-8" standalone="no"?>
<svg
   id="Layer_1_1_"
   enable-background="new 0 0 64 64"
   height="512"
   viewBox="0 0 64 64"
   width="512"
   version="1.1"
   sodipodi:docname="root.svg"
   inkscape:version="1.1 (ce6663b3b7, 2021-05-25)"
   xmlns:inkscape="http://www.inkscape.org/namespaces/inkscape"
   xmlns:sodipodi="http://sodipodi.sourceforge.net/DTD/sodipodi-0.dtd"
   xmlns="http://www.w3.org/2000/svg"
   xmlns:svg="http://www.w3.org/2000/svg">
  <defs
     id="defs1546" />
  <sodipodi:namedview
     id="namedview1544"
     pagecolor="#ffffff"
     bordercolor="#666666"
     borderopacity="1.0"
     inkscape:pageshadow="2"
     inkscape:pageopacity="0.0"
     inkscape:pagecheckerboard="0"
     showgrid="false"
     inkscape:zoom="1.2949219"
     inkscape:cx="20.464555"
     inkscape:cy="255.61388"
     inkscape:window-width="1392"
     inkscape:window-height="851"
     inkscape:window-x="1992"
     inkscape:window-y="27"
     inkscape:window-maximized="1"
     inkscape:current-layer="Layer_1_1_" />
  <path
     d="m54.74 23.021c-2.136-1.922-4.59-3.386-7.295-4.353l-4.8-1.714c-2.778-.992-4.645-3.641-4.645-6.592v-7.362c0-.552-.447-1-1-1h-10c-.553 0-1 .448-1 1v10.726c0 3.629-2.724 6.625-6.336 6.968l-6.199.591c-4.986.475-9.231 3.852-10.814 8.603-.432 1.294-.651 2.641-.651 4.005v28.107h2v-3.586l3.293 3.293 1.414-1.414-4.707-4.707v-8.451l1.684 1.403c1.536 1.28 2.537 3.074 2.818 5.052.364 2.543 1.669 4.827 3.675 6.432l2.198 1.759 1.25-1.562-2.198-1.759c-1.607-1.286-2.653-3.116-2.944-5.153-.353-2.469-1.602-4.708-3.518-6.305l-2.965-2.471v-5.245l3.279-5.272c.49-.789 1.07-1.497 1.721-2.117v7.021l-.986 5.918 1.973.329.616-3.695 1.597 2.13 1.6-1.2-2.8-3.733v-2.667h4v-2h-4v-3.588c1.592-.92 3.417-1.431 5.335-1.431h.02l8.739.016-2.195 3.171c-3.821 5.52-6.198 11.965-6.882 18.644l-.302 1.202c-.403 1.619-1.241 3.099-2.422 4.279l1.414 1.414c1.438-1.437 2.457-3.238 2.948-5.208l.282-1.127 3.027-5.449c.172-.309.358-.61.539-.915.477 2.374 1.481 4.638 2.934 6.575l.763 1.017 1.6-1.2-.763-1.017c-1.367-1.824-2.289-3.977-2.664-6.225l-.272-1.633c.694-.987 1.432-1.944 2.216-2.859l.764-.891c.177 2.047.72 4.064 1.638 5.901l1.386 2.771 1.789-.895-1.386-2.771c-.987-1.973-1.508-4.184-1.508-6.391v-.854l6.108-7.126.509.436c.867.743 1.675 1.544 2.425 2.391l-.013.003c.009.037.877 3.712-.924 7.313-2.031 4.063-3.999 12.858-4.082 13.23l1.953.434c.011-.05.638-2.855 1.526-5.987l2.716 3.395 1.563-1.249-3.58-4.476c.533-1.686 1.116-3.296 1.694-4.452.954-1.908 1.278-3.803 1.343-5.336 1.285 1.97 2.289 4.124 2.974 6.408l.813 2.698 1.971 8.869c-.03 2.703-1.476 5.237-3.796 6.629l-.713.428 1.029 1.715.713-.428c2.907-1.745 4.72-4.918 4.764-8.304 0-.001 0-.001 0-.002l1.152-9.218c.576-4.608-.063-9.311-1.851-13.599-.169-.406-.362-.797-.561-1.184l2.815 1.083c.173.066.337.15.508.221l2.82 17.863c.112.707.381 1.396.779 1.994l1.284 1.926-.919 4.594 1.961.393.526-2.633 1.182 1.773c.675 1.011.675 2.316 0 3.328l-.521.781 1.664 1.109.521-.781c1.124-1.685 1.124-3.863 0-5.547l-4.034-6.052c-.239-.358-.4-.772-.468-1.196l-.846-5.358 2.548 1.274.895-1.789-3.826-1.913-1.372-8.69c3.154 1.798 5.79 4.425 7.567 7.626l1.183 2.129v8.741h2v-10.678c0-6.207-2.646-12.149-7.26-16.301zm-5.473 5.318-5.396-2.076c-1.628-1.989-3.72-3.572-6.144-4.611l-1.333-.571-.787 1.838 1.333.571c3.414 1.463 6.08 4.158 7.509 7.586 1.653 3.967 2.245 8.318 1.712 12.582l-.437 3.495-.766-3.44-.831-2.768c-1.475-4.916-4.313-9.278-8.208-12.617l-1.268-1.087c-.202-.172-.46-.255-.728-.238-.265.021-.511.145-.683.346l-9.442 11.015c-1.741 2.032-3.283 4.249-4.582 6.586l-.165.297c1.12-4.256 2.977-8.31 5.491-11.941l3.279-4.737c.212-.306.236-.703.063-1.033-.17-.328-.511-.536-.882-.536l-10.644-.019c-.008 0-.016 0-.023 0-4.407 0-8.427 2.233-10.755 5.977l-1.58 2.54v-1.605c0-1.148.185-2.283.547-3.373 1.334-4.001 4.909-6.845 9.107-7.245l6.199-.591c4.645-.441 8.147-4.292 8.147-8.958v-9.726h8v6.362c0 3.794 2.4 7.2 5.974 8.476l4.8 1.714c2.458.878 4.688 2.208 6.629 3.955 3.613 3.252 5.887 7.713 6.45 12.493-2.512-3.925-6.218-6.981-10.586-8.661z"
     id="path1541"
     style="fill:#ffffff;fill-opacity:1" />
</svg>
