<?xml version="1.0" encoding="UTF-8" standalone="no"?>
<!-- Generator: Adobe Illustrator 16.0.0, SVG Export Plug-In . SVG Version: 6.00 Build 0)  -->

<svg
   version="1.1"
   id="Capa_1"
   x="0px"
   y="0px"
   width="42.334px"
   height="42.334px"
   viewBox="0 0 42.334 42.334"
   style="enable-background:new 0 0 42.334 42.334;"
   xml:space="preserve"
   sodipodi:docname="connect.svg"
   inkscape:version="1.1 (ce6663b3b7, 2021-05-25)"
   xmlns:inkscape="http://www.inkscape.org/namespaces/inkscape"
   xmlns:sodipodi="http://sodipodi.sourceforge.net/DTD/sodipodi-0.dtd"
   xmlns="http://www.w3.org/2000/svg"
   xmlns:svg="http://www.w3.org/2000/svg"><defs
   id="defs1020" /><sodipodi:namedview
   id="namedview1018"
   pagecolor="#ffffff"
   bordercolor="#666666"
   borderopacity="1.0"
   inkscape:pageshadow="2"
   inkscape:pageopacity="0.0"
   inkscape:pagecheckerboard="0"
   showgrid="false"
   inkscape:zoom="15.661171"
   inkscape:cx="21.167"
   inkscape:cy="21.135074"
   inkscape:window-width="1392"
   inkscape:window-height="851"
   inkscape:window-x="1672"
   inkscape:window-y="27"
   inkscape:window-maximized="1"
   inkscape:current-layer="Capa_1" />
<g
   id="g985"
   style="fill:#ffffff;fill-opacity:1">
	<g
   id="g983"
   style="fill:#ffffff;fill-opacity:1">
		<path
   d="M0,36.334c0,3.309,2.691,6,6,6s6-2.691,6-6s-2.691-6-6-6S0,33.025,0,36.334z M6,32.334c2.206,0,4,1.794,4,4s-1.794,4-4,4    s-4-1.794-4-4S3.794,32.334,6,32.334z"
   id="path977"
   style="fill:#ffffff;fill-opacity:1" />
		<path
   d="M5,25.167c0,0.553,0.448,1,1,1c5.606,0,10.167,4.562,10.167,10.167c0,0.553,0.448,1,1,1h6.667c0.007,0,0.014,0,0.02,0    c0.553,0,1-0.447,1-1c0-0.07-0.006-0.139-0.021-0.205C24.723,25.838,16.317,17.5,6,17.5c-0.552,0-1,0.447-1,1V25.167z M7,19.529    c8.487,0.5,15.304,7.317,15.804,15.805h-4.678C17.643,29.421,12.913,24.689,7,24.208V19.529z"
   id="path979"
   style="fill:#ffffff;fill-opacity:1" />
		<path
   d="M6,11.668c13.601,0,24.667,11.064,24.667,24.666c0,0.553,0.448,1,1,1h9.667c0.552,0,1-0.447,1-1    C42.334,16.3,26.035,0,6.001,0c-0.552,0-1,0.447-1,1v9.668C5,11.221,5.448,11.668,6,11.668z M7,2.015    c18.141,0.521,32.798,15.179,33.318,33.319h-7.67C32.133,21.424,20.911,10.202,7,9.687V2.015z"
   id="path981"
   style="fill:#ffffff;fill-opacity:1" />
	</g>
</g>
<g
   id="g987"
   style="fill:#ffffff;fill-opacity:1">
</g>
<g
   id="g989"
   style="fill:#ffffff;fill-opacity:1">
</g>
<g
   id="g991"
   style="fill:#ffffff;fill-opacity:1">
</g>
<g
   id="g993"
   style="fill:#ffffff;fill-opacity:1">
</g>
<g
   id="g995"
   style="fill:#ffffff;fill-opacity:1">
</g>
<g
   id="g997"
   style="fill:#ffffff;fill-opacity:1">
</g>
<g
   id="g999"
   style="fill:#ffffff;fill-opacity:1">
</g>
<g
   id="g1001"
   style="fill:#ffffff;fill-opacity:1">
</g>
<g
   id="g1003"
   style="fill:#ffffff;fill-opacity:1">
</g>
<g
   id="g1005"
   style="fill:#ffffff;fill-opacity:1">
</g>
<g
   id="g1007"
   style="fill:#ffffff;fill-opacity:1">
</g>
<g
   id="g1009"
   style="fill:#ffffff;fill-opacity:1">
</g>
<g
   id="g1011"
   style="fill:#ffffff;fill-opacity:1">
</g>
<g
   id="g1013"
   style="fill:#ffffff;fill-opacity:1">
</g>
<g
   id="g1015"
   style="fill:#ffffff;fill-opacity:1">
</g>
</svg>
