<?xml version="1.0" encoding="UTF-8" standalone="no"?>
<!-- Generator: Adobe Illustrator 19.0.0, SVG Export Plug-In . SVG Version: 6.00 Build 0)  -->

<svg
   version="1.1"
   id="Capa_1"
   x="0px"
   y="0px"
   viewBox="0 0 512 512"
   style="enable-background:new 0 0 512 512;"
   xml:space="preserve"
   sodipodi:docname="free.svg"
   inkscape:version="1.1 (ce6663b3b7, 2021-05-25)"
   xmlns:inkscape="http://www.inkscape.org/namespaces/inkscape"
   xmlns:sodipodi="http://sodipodi.sourceforge.net/DTD/sodipodi-0.dtd"
   xmlns="http://www.w3.org/2000/svg"
   xmlns:svg="http://www.w3.org/2000/svg"><defs
   id="defs47" /><sodipodi:namedview
   id="namedview45"
   pagecolor="#ffffff"
   bordercolor="#666666"
   borderopacity="1.0"
   inkscape:pageshadow="2"
   inkscape:pageopacity="0.0"
   inkscape:pagecheckerboard="0"
   showgrid="false"
   inkscape:zoom="1.2949219"
   inkscape:cx="256"
   inkscape:cy="255.61388"
   inkscape:window-width="1600"
   inkscape:window-height="863"
   inkscape:window-x="3384"
   inkscape:window-y="0"
   inkscape:window-maximized="1"
   inkscape:current-layer="Capa_1" />
<g
   id="g6"
   style="fill:#ffffff;fill-opacity:1">
	<g
   id="g4"
   style="fill:#ffffff;fill-opacity:1">
		<path
   d="M208,208h-16v32h16c8.832,0,16-7.168,16-16C224,215.168,216.832,208,208,208z"
   id="path2"
   style="fill:#ffffff;fill-opacity:1" />
	</g>
</g>
<g
   id="g12"
   style="fill:#ffffff;fill-opacity:1">
	<g
   id="g10"
   style="fill:#ffffff;fill-opacity:1">
		<path
   d="M480,64H32C14.368,64,0,78.368,0,96v320c0,17.664,14.368,32,32,32h448c17.664,0,32-14.336,32-32V96    C512,78.368,497.664,64,480,64z M112,240c8.832,0,16,7.168,16,16c0,8.832-7.168,16-16,16H96v48c0,8.832-7.168,16-16,16    c-8.832,0-16-7.168-16-16V192c0-8.832,7.168-16,16-16h32c8.832,0,16,7.168,16,16c0,8.832-7.168,16-16,16H96v32H112z M252.8,310.4    c5.312,7.072,3.872,17.088-3.2,22.4c-2.88,2.144-6.24,3.2-9.568,3.2c-4.864,0-9.664-2.208-12.8-6.4L192,282.656V320    c0,8.832-7.168,16-16,16c-8.832,0-16-7.168-16-16V192c0-8.832,7.168-16,16-16h32c26.464,0,48,21.536,48,48    c0,21.504-14.304,39.52-33.792,45.6L252.8,310.4z M336,240c8.832,0,16,7.168,16,16c0,8.832-7.168,16-16,16h-16v32h16    c8.832,0,16,7.168,16,16c0,8.832-7.168,16-16,16h-32c-8.832,0-16-7.168-16-16V192c0-8.832,7.168-16,16-16h32    c8.832,0,16,7.168,16,16c0,8.832-7.168,16-16,16h-16v32H336z M432,240c8.832,0,16,7.168,16,16c0,8.832-7.168,16-16,16h-16v32h16    c8.832,0,16,7.168,16,16c0,8.832-7.168,16-16,16h-32c-8.832,0-16-7.168-16-16V192c0-8.832,7.168-16,16-16h32    c8.832,0,16,7.168,16,16c0,8.832-7.168,16-16,16h-16v32H432z"
   id="path8"
   style="fill:#ffffff;fill-opacity:1" />
	</g>
</g>
<g
   id="g14">
</g>
<g
   id="g16">
</g>
<g
   id="g18">
</g>
<g
   id="g20">
</g>
<g
   id="g22">
</g>
<g
   id="g24">
</g>
<g
   id="g26">
</g>
<g
   id="g28">
</g>
<g
   id="g30">
</g>
<g
   id="g32">
</g>
<g
   id="g34">
</g>
<g
   id="g36">
</g>
<g
   id="g38">
</g>
<g
   id="g40">
</g>
<g
   id="g42">
</g>
</svg>
