<?xml version="1.0" encoding="UTF-8" standalone="no"?>
<!-- Generator: Adobe Illustrator 19.0.0, SVG Export Plug-In . SVG Version: 6.00 Build 0)  -->

<svg
   version="1.1"
   id="Capa_1"
   x="0px"
   y="0px"
   viewBox="0 0 60 60"
   style="enable-background:new 0 0 60 60;"
   xml:space="preserve"
   sodipodi:docname="play.svg"
   inkscape:version="1.1 (ce6663b3b7, 2021-05-25)"
   xmlns:inkscape="http://www.inkscape.org/namespaces/inkscape"
   xmlns:sodipodi="http://sodipodi.sourceforge.net/DTD/sodipodi-0.dtd"
   xmlns="http://www.w3.org/2000/svg"
   xmlns:svg="http://www.w3.org/2000/svg"><defs
   id="defs37" /><sodipodi:namedview
   id="namedview35"
   pagecolor="#ffffff"
   bordercolor="#666666"
   borderopacity="1.0"
   inkscape:pageshadow="2"
   inkscape:pageopacity="0.0"
   inkscape:pagecheckerboard="0"
   showgrid="false"
   inkscape:zoom="11.05"
   inkscape:cx="30"
   inkscape:cy="29.954751"
   inkscape:window-width="1600"
   inkscape:window-height="863"
   inkscape:window-x="3384"
   inkscape:window-y="0"
   inkscape:window-maximized="1"
   inkscape:current-layer="Capa_1" />
<path
   d="M30,0C13.458,0,0,13.458,0,30s13.458,30,30,30s30-13.458,30-30S46.542,0,30,0z M45.563,30.826l-22,15  C23.394,45.941,23.197,46,23,46c-0.16,0-0.321-0.038-0.467-0.116C22.205,45.711,22,45.371,22,45V15c0-0.371,0.205-0.711,0.533-0.884  c0.328-0.174,0.724-0.15,1.031,0.058l22,15C45.836,29.36,46,29.669,46,30S45.836,30.64,45.563,30.826z"
   id="path2"
   style="fill:#ffffff;fill-opacity:1" />
<g
   id="g4"
   style="fill:#ffffff;fill-opacity:1">
</g>
<g
   id="g6"
   style="fill:#ffffff;fill-opacity:1">
</g>
<g
   id="g8"
   style="fill:#ffffff;fill-opacity:1">
</g>
<g
   id="g10"
   style="fill:#ffffff;fill-opacity:1">
</g>
<g
   id="g12"
   style="fill:#ffffff;fill-opacity:1">
</g>
<g
   id="g14"
   style="fill:#ffffff;fill-opacity:1">
</g>
<g
   id="g16"
   style="fill:#ffffff;fill-opacity:1">
</g>
<g
   id="g18"
   style="fill:#ffffff;fill-opacity:1">
</g>
<g
   id="g20"
   style="fill:#ffffff;fill-opacity:1">
</g>
<g
   id="g22"
   style="fill:#ffffff;fill-opacity:1">
</g>
<g
   id="g24"
   style="fill:#ffffff;fill-opacity:1">
</g>
<g
   id="g26"
   style="fill:#ffffff;fill-opacity:1">
</g>
<g
   id="g28"
   style="fill:#ffffff;fill-opacity:1">
</g>
<g
   id="g30"
   style="fill:#ffffff;fill-opacity:1">
</g>
<g
   id="g32"
   style="fill:#ffffff;fill-opacity:1">
</g>
</svg>
