<svg id="Capa_1" enable-background="new 0 0 512 512" height="512" viewBox="0 0 512 512" width="512" xmlns="http://www.w3.org/2000/svg"><g><path d="m256 0c-107.523 0-195 87.477-195 195 0 121.209 124.594 212.522 182.093 309.642 2.7 4.561 7.606 7.358 12.907 7.358s10.207-2.797 12.907-7.358c57.484-97.095 182.093-188.431 182.093-309.642 0-107.523-87.477-195-195-195zm0 469.08c-61.005-89.967-165-174.438-165-274.08 0-90.981 74.019-165 165-165s165 74.019 165 165c0 99.642-104.002 184.123-165 274.08z"/><path d="m256 60c-74.439 0-135 60.561-135 135s60.561 135 135 135 135-60.561 135-135-60.561-135-135-135zm0 240c-57.897 0-105-47.103-105-105s47.103-105 105-105 105 47.103 105 105-47.103 105-105 105z"/><path d="m256 120c-24.813 0-45 20.187-45 45 0 8.284 6.716 15 15 15s15-6.716 15-15c0-8.271 6.729-15 15-15s15 6.729 15 15c0 6.322-3.994 12-9.939 14.129-11.999 4.299-20.061 15.747-20.061 28.49v2.381c0 8.284 6.716 15 15 15s15-6.716 15-15v-2.381c0-.108.073-.209.178-.247 17.838-6.39 29.822-23.417 29.822-42.372 0-24.813-20.187-45-45-45z"/><circle cx="256" cy="255" r="15"/></g></svg>