<?xml version="1.0" encoding="iso-8859-1"?>
<!-- Generator: Adobe Illustrator 16.0.0, SVG Export Plug-In . SVG Version: 6.00 Build 0)  -->
<!DOCTYPE svg PUBLIC "-//W3C//DTD SVG 1.1//EN" "http://www.w3.org/Graphics/SVG/1.1/DTD/svg11.dtd">
<svg version="1.1" id="Capa_1" xmlns="http://www.w3.org/2000/svg" xmlns:xlink="http://www.w3.org/1999/xlink" x="0px" y="0px"
	 width="42.334px" height="42.334px" viewBox="0 0 42.334 42.334" style="enable-background:new 0 0 42.334 42.334;"
	 xml:space="preserve">
<g>
	<g>
		<path d="M0,36.334c0,3.309,2.691,6,6,6s6-2.691,6-6s-2.691-6-6-6S0,33.025,0,36.334z M6,32.334c2.206,0,4,1.794,4,4s-1.794,4-4,4
			s-4-1.794-4-4S3.794,32.334,6,32.334z"/>
		<path d="M5,25.167c0,0.553,0.448,1,1,1c5.606,0,10.167,4.562,10.167,10.167c0,0.553,0.448,1,1,1h6.667c0.007,0,0.014,0,0.02,0
			c0.553,0,1-0.447,1-1c0-0.07-0.006-0.139-0.021-0.205C24.723,25.838,16.317,17.5,6,17.5c-0.552,0-1,0.447-1,1V25.167z M7,19.529
			c8.487,0.5,15.304,7.317,15.804,15.805h-4.678C17.643,29.421,12.913,24.689,7,24.208V19.529z"/>
		<path d="M6,11.668c13.601,0,24.667,11.064,24.667,24.666c0,0.553,0.448,1,1,1h9.667c0.552,0,1-0.447,1-1
			C42.334,16.3,26.035,0,6.001,0c-0.552,0-1,0.447-1,1v9.668C5,11.221,5.448,11.668,6,11.668z M7,2.015
			c18.141,0.521,32.798,15.179,33.318,33.319h-7.67C32.133,21.424,20.911,10.202,7,9.687V2.015z"/>
	</g>
</g>
<g>
</g>
<g>
</g>
<g>
</g>
<g>
</g>
<g>
</g>
<g>
</g>
<g>
</g>
<g>
</g>
<g>
</g>
<g>
</g>
<g>
</g>
<g>
</g>
<g>
</g>
<g>
</g>
<g>
</g>
</svg>
