<?xml version="1.0" encoding="iso-8859-1"?>
<!-- Generator: Adobe Illustrator 19.0.0, SVG Export Plug-In . SVG Version: 6.00 Build 0)  -->
<svg version="1.1" id="Capa_1" xmlns="http://www.w3.org/2000/svg" xmlns:xlink="http://www.w3.org/1999/xlink" x="0px" y="0px"
	 viewBox="0 0 512 512" style="enable-background:new 0 0 512 512;" xml:space="preserve">
<g>
	<g>
		<path d="M208,208h-16v32h16c8.832,0,16-7.168,16-16C224,215.168,216.832,208,208,208z"/>
	</g>
</g>
<g>
	<g>
		<path d="M480,64H32C14.368,64,0,78.368,0,96v320c0,17.664,14.368,32,32,32h448c17.664,0,32-14.336,32-32V96
			C512,78.368,497.664,64,480,64z M112,240c8.832,0,16,7.168,16,16c0,8.832-7.168,16-16,16H96v48c0,8.832-7.168,16-16,16
			c-8.832,0-16-7.168-16-16V192c0-8.832,7.168-16,16-16h32c8.832,0,16,7.168,16,16c0,8.832-7.168,16-16,16H96v32H112z M252.8,310.4
			c5.312,7.072,3.872,17.088-3.2,22.4c-2.88,2.144-6.24,3.2-9.568,3.2c-4.864,0-9.664-2.208-12.8-6.4L192,282.656V320
			c0,8.832-7.168,16-16,16c-8.832,0-16-7.168-16-16V192c0-8.832,7.168-16,16-16h32c26.464,0,48,21.536,48,48
			c0,21.504-14.304,39.52-33.792,45.6L252.8,310.4z M336,240c8.832,0,16,7.168,16,16c0,8.832-7.168,16-16,16h-16v32h16
			c8.832,0,16,7.168,16,16c0,8.832-7.168,16-16,16h-32c-8.832,0-16-7.168-16-16V192c0-8.832,7.168-16,16-16h32
			c8.832,0,16,7.168,16,16c0,8.832-7.168,16-16,16h-16v32H336z M432,240c8.832,0,16,7.168,16,16c0,8.832-7.168,16-16,16h-16v32h16
			c8.832,0,16,7.168,16,16c0,8.832-7.168,16-16,16h-32c-8.832,0-16-7.168-16-16V192c0-8.832,7.168-16,16-16h32
			c8.832,0,16,7.168,16,16c0,8.832-7.168,16-16,16h-16v32H432z"/>
	</g>
</g>
<g>
</g>
<g>
</g>
<g>
</g>
<g>
</g>
<g>
</g>
<g>
</g>
<g>
</g>
<g>
</g>
<g>
</g>
<g>
</g>
<g>
</g>
<g>
</g>
<g>
</g>
<g>
</g>
<g>
</g>
</svg>
