<?xml version="1.0" encoding="UTF-8" standalone="no"?>
<!-- Generator: Adobe Illustrator 19.0.0, SVG Export Plug-In . SVG Version: 6.00 Build 0)  -->

<svg
   version="1.1"
   id="Capa_1"
   x="0px"
   y="0px"
   viewBox="0 0 512.17197 447.52895"
   xml:space="preserve"
   sodipodi:docname="left-arrow.svg"
   inkscape:version="1.1 (ce6663b3b7, 2021-05-25)"
   width="512.172"
   height="447.52896"
   xmlns:inkscape="http://www.inkscape.org/namespaces/inkscape"
   xmlns:sodipodi="http://sodipodi.sourceforge.net/DTD/sodipodi-0.dtd"
   xmlns:xlink="http://www.w3.org/1999/xlink"
   xmlns="http://www.w3.org/2000/svg"
   xmlns:svg="http://www.w3.org/2000/svg"><defs
   id="defs41"><linearGradient
     inkscape:collect="always"
     id="linearGradient1312"><stop
       style="stop-color:#000000;stop-opacity:1;"
       offset="0"
       id="stop1308" /><stop
       style="stop-color:#000000;stop-opacity:0;"
       offset="1"
       id="stop1310" /></linearGradient><linearGradient
     inkscape:collect="always"
     xlink:href="#linearGradient1312"
     id="linearGradient1314"
     x1="0"
     y1="256.08551"
     x2="512.172"
     y2="256.08551"
     gradientUnits="userSpaceOnUse" /></defs><sodipodi:namedview
   id="namedview39"
   pagecolor="#ffffff"
   bordercolor="#666666"
   borderopacity="1.0"
   inkscape:pageshadow="2"
   inkscape:pageopacity="0.0"
   inkscape:pagecheckerboard="0"
   showgrid="false"
   inkscape:zoom="1.2944895"
   inkscape:cx="325.22474"
   inkscape:cy="285.82696"
   inkscape:window-width="1600"
   inkscape:window-height="863"
   inkscape:window-x="3064"
   inkscape:window-y="0"
   inkscape:window-maximized="1"
   inkscape:current-layer="Capa_1"
   fit-margin-top="0"
   fit-margin-left="0"
   fit-margin-right="0"
   fit-margin-bottom="0" />
<g
   id="g6"
   style="fill:#aaaaaa;fill-opacity:1;stroke:none;stroke-opacity:1"
   transform="rotate(180,256.086,239.925)">
	<g
   id="g4"
   style="fill:#aaaaaa;fill-opacity:1;stroke:none;stroke-opacity:1">
		<path
   d="M 509.035,248.212 295.531,35.412 c -3.051,-3.029 -7.595,-3.904 -11.627,-2.304 -3.989,1.664 -6.571,5.547 -6.571,9.856 V 160.297 H 10.667 C 4.779,160.298 0,165.076 0,170.964 v 170.667 c 0,5.888 4.779,10.667 10.667,10.667 h 266.667 v 116.885 c 0,4.309 2.603,8.192 6.592,9.856 1.323,0.555 2.709,0.811 4.075,0.811 2.773,0 5.504,-1.088 7.552,-3.115 L 509.057,263.316 c 2.005,-2.005 3.115,-4.715 3.115,-7.552 -10e-4,-2.837 -1.132,-5.546 -3.137,-7.552 z"
   id="path2"
   style="fill:#aaaaaa;fill-opacity:1;stroke:none;stroke-opacity:1" />
	</g>
</g>
<g
   id="g8"
   transform="rotate(-90,-16.160514,16.160522)"
   style="fill:#aaaaaa;fill-opacity:1">
</g>
<g
   id="g10"
   transform="rotate(-90,-16.160514,16.160522)"
   style="fill:#aaaaaa;fill-opacity:1">
</g>
<g
   id="g12"
   transform="rotate(-90,-16.160514,16.160522)"
   style="fill:#aaaaaa;fill-opacity:1">
</g>
<g
   id="g14"
   transform="rotate(-90,-16.160514,16.160522)"
   style="fill:#aaaaaa;fill-opacity:1">
</g>
<g
   id="g16"
   transform="rotate(-90,-16.160514,16.160522)"
   style="fill:#aaaaaa;fill-opacity:1">
</g>
<g
   id="g18"
   transform="rotate(-90,-16.160514,16.160522)"
   style="fill:#aaaaaa;fill-opacity:1">
</g>
<g
   id="g20"
   transform="rotate(-90,-16.160514,16.160522)"
   style="fill:#aaaaaa;fill-opacity:1">
</g>
<g
   id="g22"
   transform="rotate(-90,-16.160514,16.160522)"
   style="fill:#aaaaaa;fill-opacity:1">
</g>
<g
   id="g24"
   transform="rotate(-90,-16.160514,16.160522)"
   style="fill:#aaaaaa;fill-opacity:1">
</g>
<g
   id="g26"
   transform="rotate(-90,-16.160514,16.160522)"
   style="fill:#aaaaaa;fill-opacity:1">
</g>
<g
   id="g28"
   transform="rotate(-90,-16.160514,16.160522)"
   style="fill:#aaaaaa;fill-opacity:1">
</g>
<g
   id="g30"
   transform="rotate(-90,-16.160514,16.160522)"
   style="fill:#aaaaaa;fill-opacity:1">
</g>
<g
   id="g32"
   transform="rotate(-90,-16.160514,16.160522)"
   style="fill:#aaaaaa;fill-opacity:1">
</g>
<g
   id="g34"
   transform="rotate(-90,-16.160514,16.160522)"
   style="fill:#aaaaaa;fill-opacity:1">
</g>
<g
   id="g36"
   transform="rotate(-90,-16.160514,16.160522)"
   style="fill:#aaaaaa;fill-opacity:1">
</g>
</svg>
