<?xml version="1.0" encoding="iso-8859-1"?>
<!-- Generator: Adobe Illustrator 19.0.0, SVG Export Plug-In . SVG Version: 6.00 Build 0)  -->
<svg version="1.1" id="Capa_1" xmlns="http://www.w3.org/2000/svg" xmlns:xlink="http://www.w3.org/1999/xlink" x="0px" y="0px"
	 viewBox="0 0 512 512" style="enable-background:new 0 0 512 512;" xml:space="preserve">
<path style="fill:#303C42;" d="M256,0C114.833,0,0,114.844,0,256s114.833,256,256,256s256-114.844,256-256S397.167,0,256,0z"/>
<path style="fill:#E6E6E6;" d="M256,490.667C126.604,490.667,21.333,385.396,21.333,256S126.604,21.333,256,21.333
	S490.667,126.604,490.667,256S385.396,490.667,256,490.667z"/>
<circle style="fill:#303C42;" cx="256" cy="256" r="106.667"/>
<circle style="fill:#D32F2F;" cx="256" cy="256" r="85.333"/>
<path style="opacity:0.1;enable-background:new    ;" d="M304.389,185.844c2.978,8.673,4.944,17.819,4.944,27.49
	c0,47.052-38.271,85.333-85.333,85.333c-17.978,0-34.621-5.65-48.389-15.177c11.508,33.527,43,57.844,80.389,57.844
	c47.063,0,85.333-38.281,85.333-85.333C341.333,226.922,326.665,201.258,304.389,185.844z"/>
<linearGradient id="SVGID_1_" gradientUnits="userSpaceOnUse" x1="-34.526" y1="634.2971" x2="-26.9385" y2="626.7086" gradientTransform="matrix(21.3333 0 0 -21.3333 996.3334 13791.667)">
	<stop  offset="0" style="stop-color:#000000;stop-opacity:0.1"/>
	<stop  offset="1" style="stop-color:#000000;stop-opacity:0"/>
</linearGradient>
<path style="fill:url(#SVGID_1_);" d="M335.12,185.133c16.935,18.888,27.547,43.565,27.547,70.867
	c0,58.813-47.854,106.667-106.667,106.667c-27.426,0-52.216-10.695-71.134-27.767l-0.194,0.214l143.926,143.926
	c70.947-23.155,127.06-79.21,150.319-150.109L335.12,185.133z"/>
<linearGradient id="SVGID_2_" gradientUnits="userSpaceOnUse" x1="-45.5785" y1="639.5551" x2="-23.8277" y2="629.4137" gradientTransform="matrix(21.3333 0 0 -21.3333 996.3334 13791.667)">
	<stop  offset="0" style="stop-color:#FFFFFF;stop-opacity:0.2"/>
	<stop  offset="1" style="stop-color:#FFFFFF;stop-opacity:0"/>
</linearGradient>
<path style="fill:url(#SVGID_2_);" d="M256,0C114.833,0,0,114.844,0,256s114.833,256,256,256s256-114.844,256-256S397.167,0,256,0z"
	/>
<g>
</g>
<g>
</g>
<g>
</g>
<g>
</g>
<g>
</g>
<g>
</g>
<g>
</g>
<g>
</g>
<g>
</g>
<g>
</g>
<g>
</g>
<g>
</g>
<g>
</g>
<g>
</g>
<g>
</g>
</svg>
