<?xml version="1.0" encoding="UTF-8" standalone="no"?>
<svg
   height="384pt"
   viewBox="0 0 384 384"
   width="384pt"
   version="1.1"
   id="svg6"
   sodipodi:docname="clock.svg"
   inkscape:version="1.1 (ce6663b3b7, 2021-05-25)"
   xmlns:inkscape="http://www.inkscape.org/namespaces/inkscape"
   xmlns:sodipodi="http://sodipodi.sourceforge.net/DTD/sodipodi-0.dtd"
   xmlns="http://www.w3.org/2000/svg"
   xmlns:svg="http://www.w3.org/2000/svg">
  <defs
     id="defs10" />
  <sodipodi:namedview
     id="namedview8"
     pagecolor="#ffffff"
     bordercolor="#666666"
     borderopacity="1.0"
     inkscape:pageshadow="2"
     inkscape:pageopacity="0.0"
     inkscape:pagecheckerboard="0"
     inkscape:document-units="pt"
     showgrid="false"
     inkscape:zoom="1.2949219"
     inkscape:cx="256"
     inkscape:cy="256.38612"
     inkscape:window-width="1392"
     inkscape:window-height="851"
     inkscape:window-x="1992"
     inkscape:window-y="27"
     inkscape:window-maximized="1"
     inkscape:current-layer="svg6" />
  <path
     d="m343.59375 101.039062c-7.953125 3.847657-11.28125 13.417969-7.433594 21.367188 10.511719 21.714844 15.839844 45.121094 15.839844 69.59375 0 88.222656-71.777344 160-160 160s-160-71.777344-160-160 71.777344-160 160-160c36.558594 0 70.902344 11.9375 99.328125 34.519531 6.894531 5.503907 16.976563 4.351563 22.480469-2.566406 5.503906-6.914063 4.351562-16.984375-2.570313-22.480469-33.652343-26.746094-76-41.472656-119.238281-41.472656-105.863281 0-192 86.136719-192 192s86.136719 192 192 192 192-86.136719 192-192c0-29.335938-6.40625-57.449219-19.039062-83.527344-3.839844-7.96875-13.441407-11.289062-21.367188-7.433594zm0 0"
     id="path2"
     style="fill:#ffffff;fill-opacity:1" />
  <path
     d="m192 64c-8.832031 0-16 7.167969-16 16v112c0 8.832031 7.167969 16 16 16h80c8.832031 0 16-7.167969 16-16s-7.167969-16-16-16h-64v-96c0-8.832031-7.167969-16-16-16zm0 0"
     id="path4"
     style="fill:#ffffff;fill-opacity:1" />
</svg>
